<svg width="18" height="14" viewBox="0 0 18 14" fill="none" xmlns="http://www.w3.org/2000/svg">
<path fill-rule="evenodd" clip-rule="evenodd" d="M3.54938 1.54936C3.79345 1.30529 3.79345 0.909558 3.54938 0.66548C3.3053 0.421402 2.90957 0.421402 2.66549 0.66548C1.04504 2.28594 0.0416565 4.52638 0.0416565 6.99998C0.0416565 9.47358 1.04504 11.714 2.66549 13.3345C2.90957 13.5786 3.3053 13.5786 3.54938 13.3345C3.79345 13.0904 3.79345 12.6947 3.54938 12.4506C2.15376 11.055 1.29166 9.12875 1.29166 6.99998C1.29166 4.87121 2.15376 2.94498 3.54938 1.54936ZM15.3345 0.66548C15.0904 0.421403 14.6947 0.421403 14.4506 0.66548C14.2065 0.909558 14.2065 1.30529 14.4506 1.54936C15.8462 2.94498 16.7083 4.87121 16.7083 6.99998C16.7083 9.12875 15.8462 11.055 14.4506 12.4506C14.2065 12.6947 14.2065 13.0904 14.4506 13.3345C14.6947 13.5786 15.0904 13.5786 15.3345 13.3345C16.9549 11.714 17.9583 9.47358 17.9583 6.99998C17.9583 4.52638 16.9549 2.28594 15.3345 0.66548ZM5.9064 3.90639C6.15048 3.66231 6.15048 3.26658 5.9064 3.0225C5.66232 2.77843 5.26659 2.77843 5.02251 3.0225C4.00527 4.03974 3.37499 5.44685 3.37499 6.99998C3.37499 8.55311 4.00527 9.96021 5.02251 10.9775C5.26659 11.2215 5.66232 11.2215 5.9064 10.9775C6.15048 10.7334 6.15048 10.3376 5.9064 10.0936C5.11399 9.30117 4.62499 8.20827 4.62499 6.99998C4.62499 5.79168 5.11399 4.69879 5.9064 3.90639ZM12.9775 3.0225C12.7334 2.77843 12.3377 2.77843 12.0936 3.0225C11.8495 3.26658 11.8495 3.66231 12.0936 3.90639C12.886 4.69879 13.375 5.79168 13.375 6.99998C13.375 8.20827 12.886 9.30117 12.0936 10.0936C11.8495 10.3376 11.8495 10.7334 12.0936 10.9775C12.3377 11.2215 12.7334 11.2215 12.9775 10.9775C13.9947 9.96021 14.625 8.55311 14.625 6.99998C14.625 5.44685 13.9947 4.03974 12.9775 3.0225ZM8.99999 9.08329C10.1506 9.08329 11.0833 8.15055 11.0833 6.99996C11.0833 5.84937 10.1506 4.91663 8.99999 4.91663C7.8494 4.91663 6.91666 5.84937 6.91666 6.99996C6.91666 8.15055 7.8494 9.08329 8.99999 9.08329Z" fill="#EDEEEF"/>
</svg>
