<svg width="16" height="14" viewBox="0 0 16 14" fill="none" xmlns="http://www.w3.org/2000/svg">
<path fill-rule="evenodd" clip-rule="evenodd" d="M0.333344 1.66669C0.333344 1.1144 0.781059 0.666687 1.33334 0.666687H14.6667C15.219 0.666687 15.6667 1.1144 15.6667 1.66669C15.6667 2.21897 15.219 2.66669 14.6667 2.66669H1.33334C0.781059 2.66669 0.333344 2.21897 0.333344 1.66669ZM0.333344 7.00002C0.333344 6.44774 0.781059 6.00002 1.33334 6.00002H14.6667C15.219 6.00002 15.6667 6.44774 15.6667 7.00002C15.6667 7.5523 15.219 8.00002 14.6667 8.00002H1.33334C0.781059 8.00002 0.333344 7.5523 0.333344 7.00002ZM1.33334 11.3334C0.781059 11.3334 0.333344 11.7811 0.333344 12.3334C0.333344 12.8856 0.781059 13.3334 1.33334 13.3334H14.6667C15.219 13.3334 15.6667 12.8856 15.6667 12.3334C15.6667 11.7811 15.219 11.3334 14.6667 11.3334H1.33334Z" fill="white"/>
</svg>
