<svg width="552" height="274" viewBox="0 0 552 274" fill="none" xmlns="http://www.w3.org/2000/svg">
<path d="M19.472 31.432L19.104 32.712H21.776L21.408 31.432C21.2373 30.8773 21.072 30.3067 20.912 29.72C20.7627 29.1333 20.6133 28.552 20.464 27.976H20.4C20.2613 28.5627 20.112 29.1493 19.952 29.736C19.8027 30.312 19.6427 30.8773 19.472 31.432ZM15.968 37L19.376 26.536H21.552L24.96 37H23.008L22.192 34.168H18.672L17.856 37H15.968ZM26.2499 37V26.536H32.5539V28.104H28.1059V30.776H31.8659V32.344H28.1059V35.432H32.7139V37H26.2499ZM37.9184 37V35.496H40.1904V28.808H38.3184V27.656C38.8197 27.56 39.257 27.448 39.6304 27.32C40.0037 27.1813 40.3504 27.016 40.6704 26.824H42.0464V35.496H44.0464V37H37.9184Z" fill="#596069"/>
<rect x="53" y="23" width="429" height="16" fill="#E1EFFF"/>
<rect x="53" y="23" width="227.29" height="16" fill="#016BFF"/>
<path d="M289.178 35.5V34.372H290.882V29.356H289.478V28.492C289.854 28.42 290.182 28.336 290.462 28.24C290.742 28.136 291.002 28.012 291.242 27.868H292.274V34.372H293.774V35.5H289.178ZM297.334 35.644C296.718 35.644 296.198 35.54 295.774 35.332C295.358 35.116 295.01 34.868 294.73 34.588L295.366 33.7C295.598 33.916 295.858 34.108 296.146 34.276C296.434 34.436 296.77 34.516 297.154 34.516C297.578 34.516 297.93 34.388 298.21 34.132C298.49 33.876 298.63 33.516 298.63 33.052C298.63 32.596 298.502 32.244 298.246 31.996C297.99 31.748 297.65 31.624 297.226 31.624C296.978 31.624 296.77 31.66 296.602 31.732C296.434 31.796 296.234 31.904 296.002 32.056L295.342 31.636L295.57 27.868H299.65V29.032H296.77L296.614 30.88C296.774 30.8 296.93 30.74 297.082 30.7C297.242 30.652 297.422 30.628 297.622 30.628C298.062 30.628 298.462 30.712 298.822 30.88C299.182 31.048 299.47 31.308 299.686 31.66C299.91 32.012 300.022 32.464 300.022 33.016C300.022 33.568 299.894 34.04 299.638 34.432C299.39 34.824 299.062 35.124 298.654 35.332C298.246 35.54 297.806 35.644 297.334 35.644ZM303.679 35.644C303.183 35.644 302.739 35.556 302.347 35.38C301.955 35.196 301.647 34.948 301.423 34.636C301.199 34.324 301.087 33.96 301.087 33.544C301.087 33.072 301.227 32.676 301.507 32.356C301.787 32.036 302.107 31.78 302.467 31.588V31.54C302.171 31.332 301.919 31.084 301.711 30.796C301.511 30.5 301.411 30.152 301.411 29.752C301.411 29.336 301.511 28.98 301.711 28.684C301.911 28.38 302.183 28.144 302.527 27.976C302.879 27.808 303.275 27.724 303.715 27.724C304.403 27.724 304.947 27.916 305.347 28.3C305.755 28.676 305.959 29.172 305.959 29.788C305.959 30.164 305.851 30.504 305.635 30.808C305.419 31.112 305.187 31.356 304.939 31.54V31.588C305.291 31.788 305.599 32.04 305.863 32.344C306.127 32.648 306.259 33.056 306.259 33.568C306.259 33.96 306.151 34.312 305.935 34.624C305.719 34.936 305.419 35.184 305.035 35.368C304.651 35.552 304.199 35.644 303.679 35.644ZM304.183 31.192C304.391 30.984 304.547 30.772 304.651 30.556C304.763 30.34 304.819 30.112 304.819 29.872C304.819 29.536 304.719 29.26 304.519 29.044C304.319 28.82 304.043 28.708 303.691 28.708C303.395 28.708 303.147 28.8 302.947 28.984C302.747 29.168 302.647 29.424 302.647 29.752C302.647 30.008 302.715 30.224 302.851 30.4C302.987 30.568 303.171 30.716 303.403 30.844C303.643 30.964 303.903 31.08 304.183 31.192ZM303.703 34.66C304.071 34.66 304.371 34.56 304.603 34.36C304.843 34.152 304.963 33.872 304.963 33.52C304.963 33.24 304.879 33.012 304.711 32.836C304.551 32.66 304.331 32.508 304.051 32.38C303.779 32.244 303.471 32.108 303.127 31.972C302.887 32.148 302.687 32.356 302.527 32.596C302.375 32.836 302.299 33.104 302.299 33.4C302.299 33.776 302.435 34.08 302.707 34.312C302.979 34.544 303.311 34.66 303.703 34.66Z" fill="#016BFF"/>
<path d="M492.002 29.84C492.002 30.3627 492.123 30.7593 492.366 31.03C492.618 31.3007 492.968 31.436 493.416 31.436C493.677 31.436 493.948 31.3567 494.228 31.198C494.517 31.03 494.779 30.764 495.012 30.4C494.928 29.616 494.737 29.0467 494.438 28.692C494.139 28.3373 493.771 28.16 493.332 28.16C492.968 28.16 492.655 28.3047 492.394 28.594C492.133 28.8833 492.002 29.2987 492.002 29.84ZM493.038 36.168C492.506 36.168 492.044 36.07 491.652 35.874C491.26 35.678 490.929 35.44 490.658 35.16L491.526 34.18C491.694 34.376 491.904 34.5393 492.156 34.67C492.417 34.7913 492.683 34.852 492.954 34.852C493.327 34.852 493.668 34.7493 493.976 34.544C494.284 34.3387 494.536 33.998 494.732 33.522C494.928 33.0367 495.035 32.3833 495.054 31.562C494.793 31.8793 494.485 32.1313 494.13 32.318C493.775 32.5047 493.435 32.598 493.108 32.598C492.343 32.598 491.717 32.374 491.232 31.926C490.756 31.4687 490.518 30.7733 490.518 29.84C490.518 29.2427 490.644 28.7293 490.896 28.3C491.157 27.8613 491.498 27.5253 491.918 27.292C492.347 27.0493 492.814 26.928 493.318 26.928C493.897 26.928 494.429 27.082 494.914 27.39C495.409 27.698 495.801 28.174 496.09 28.818C496.389 29.4527 496.538 30.2693 496.538 31.268C496.538 32.416 496.375 33.354 496.048 34.082C495.721 34.8007 495.292 35.328 494.76 35.664C494.228 36 493.654 36.168 493.038 36.168ZM500.762 36.168C499.838 36.168 499.1 35.7667 498.55 34.964C498.008 34.1613 497.738 33.0087 497.738 31.506C497.738 30.0033 498.008 28.8647 498.55 28.09C499.1 27.3153 499.838 26.928 500.762 26.928C501.686 26.928 502.418 27.3153 502.96 28.09C503.51 28.8647 503.786 30.0033 503.786 31.506C503.786 33.0087 503.51 34.1613 502.96 34.964C502.418 35.7667 501.686 36.168 500.762 36.168ZM500.762 34.908C501.051 34.908 501.308 34.8007 501.532 34.586C501.756 34.362 501.928 34.0027 502.05 33.508C502.18 33.0133 502.246 32.346 502.246 31.506C502.246 30.666 502.18 30.0033 502.05 29.518C501.928 29.0327 501.756 28.692 501.532 28.496C501.308 28.2907 501.051 28.188 500.762 28.188C500.482 28.188 500.23 28.2907 500.006 28.496C499.782 28.692 499.604 29.0327 499.474 29.518C499.343 30.0033 499.278 30.666 499.278 31.506C499.278 32.346 499.343 33.0133 499.474 33.508C499.604 34.0027 499.782 34.362 500.006 34.586C500.23 34.8007 500.482 34.908 500.762 34.908ZM507.939 36.168C507.015 36.168 506.278 35.7667 505.727 34.964C505.186 34.1613 504.915 33.0087 504.915 31.506C504.915 30.0033 505.186 28.8647 505.727 28.09C506.278 27.3153 507.015 26.928 507.939 26.928C508.863 26.928 509.596 27.3153 510.137 28.09C510.688 28.8647 510.963 30.0033 510.963 31.506C510.963 33.0087 510.688 34.1613 510.137 34.964C509.596 35.7667 508.863 36.168 507.939 36.168ZM507.939 34.908C508.229 34.908 508.485 34.8007 508.709 34.586C508.933 34.362 509.106 34.0027 509.227 33.508C509.358 33.0133 509.423 32.346 509.423 31.506C509.423 30.666 509.358 30.0033 509.227 29.518C509.106 29.0327 508.933 28.692 508.709 28.496C508.485 28.2907 508.229 28.188 507.939 28.188C507.659 28.188 507.407 28.2907 507.183 28.496C506.959 28.692 506.782 29.0327 506.651 29.518C506.521 30.0033 506.455 30.666 506.455 31.506C506.455 32.346 506.521 33.0133 506.651 33.508C506.782 34.0027 506.959 34.362 507.183 34.586C507.407 34.8007 507.659 34.908 507.939 34.908Z" fill="#016BFF"/>
<path d="M520.984 35.5V26.956H521.956V32.74H521.992L524.476 29.668H525.568L523.612 32.008L525.832 35.5H524.752L523.048 32.692L521.956 33.964V35.5H520.984ZM527.885 35.5L526.217 27.628H527.249L528.077 31.912C528.149 32.336 528.225 32.76 528.305 33.184C528.385 33.608 528.461 34.032 528.533 34.456H528.581C528.669 34.032 528.761 33.608 528.857 33.184C528.953 32.752 529.045 32.328 529.133 31.912L530.225 27.628H531.137L532.229 31.912C532.325 32.328 532.421 32.752 532.517 33.184C532.613 33.608 532.709 34.032 532.805 34.456H532.853C532.925 34.032 532.997 33.608 533.069 33.184C533.141 32.752 533.217 32.328 533.297 31.912L534.125 27.628H535.085L533.453 35.5H532.253L531.065 30.76C530.993 30.456 530.925 30.16 530.861 29.872C530.805 29.576 530.745 29.276 530.681 28.972H530.633C530.577 29.276 530.513 29.576 530.441 29.872C530.369 30.16 530.301 30.456 530.237 30.76L529.073 35.5H527.885Z" fill="#016BFF"/>
<path d="M19.472 77.432L19.104 78.712H21.776L21.408 77.432C21.2373 76.8773 21.072 76.3067 20.912 75.72C20.7627 75.1333 20.6133 74.552 20.464 73.976H20.4C20.2613 74.5627 20.112 75.1493 19.952 75.736C19.8027 76.312 19.6427 76.8773 19.472 77.432ZM15.968 83L19.376 72.536H21.552L24.96 83H23.008L22.192 80.168H18.672L17.856 83H15.968ZM26.2499 83V72.536H32.5539V74.104H28.1059V76.776H31.8659V78.344H28.1059V81.432H32.7139V83H26.2499ZM37.3424 83V81.928C38.2917 81.0107 39.1077 80.1947 39.7904 79.48C40.4837 78.7547 41.017 78.0987 41.3904 77.512C41.7637 76.9147 41.9504 76.36 41.9504 75.848C41.9504 75.3147 41.8064 74.888 41.5184 74.568C41.2304 74.248 40.8144 74.088 40.2704 74.088C39.8757 74.088 39.513 74.2 39.1824 74.424C38.8624 74.648 38.5637 74.9147 38.2864 75.224L37.2624 74.2C37.7317 73.6987 38.217 73.3147 38.7184 73.048C39.2197 72.7707 39.817 72.632 40.5104 72.632C41.4917 72.632 42.2704 72.9147 42.8464 73.48C43.433 74.0453 43.7264 74.8027 43.7264 75.752C43.7264 76.3493 43.5557 76.9627 43.2144 77.592C42.8837 78.2107 42.4357 78.8453 41.8704 79.496C41.3157 80.1467 40.7024 80.8293 40.0304 81.544C40.297 81.5227 40.585 81.5013 40.8944 81.48C41.2037 81.448 41.481 81.432 41.7264 81.432H44.2224V83H37.3424Z" fill="#596069"/>
<rect x="53" y="69" width="429" height="16" fill="#DEE0E2"/>
<path d="M65.984 81.644C65.328 81.644 64.744 81.476 64.232 81.14C63.728 80.804 63.332 80.328 63.044 79.712C62.764 79.096 62.624 78.368 62.624 77.528C62.624 76.688 62.764 75.968 63.044 75.368C63.332 74.76 63.728 74.296 64.232 73.976C64.744 73.648 65.328 73.484 65.984 73.484C66.648 73.484 67.232 73.648 67.736 73.976C68.24 74.296 68.636 74.76 68.924 75.368C69.212 75.968 69.356 76.688 69.356 77.528C69.356 78.368 69.212 79.096 68.924 79.712C68.636 80.328 68.24 80.804 67.736 81.14C67.232 81.476 66.648 81.644 65.984 81.644ZM65.984 80.768C66.456 80.768 66.864 80.636 67.208 80.372C67.56 80.1 67.832 79.724 68.024 79.244C68.216 78.756 68.312 78.184 68.312 77.528C68.312 76.552 68.1 75.78 67.676 75.212C67.252 74.644 66.688 74.36 65.984 74.36C65.28 74.36 64.716 74.644 64.292 75.212C63.868 75.78 63.656 76.552 63.656 77.528C63.656 78.184 63.752 78.756 63.944 79.244C64.136 79.724 64.408 80.1 64.76 80.372C65.112 80.636 65.52 80.768 65.984 80.768ZM74.5408 81.5V76.472H72.1048V81.5H71.1208V76.472H70.3288V75.728L71.1208 75.668V74.9C71.1208 74.292 71.2688 73.812 71.5648 73.46C71.8688 73.108 72.3248 72.932 72.9328 72.932C73.3328 72.932 73.6888 73.004 74.0008 73.148L73.7968 73.892C73.5568 73.788 73.2968 73.736 73.0168 73.736C72.7288 73.736 72.5048 73.84 72.3448 74.048C72.1848 74.248 72.1048 74.54 72.1048 74.924V75.668H74.5408V74.744C74.5408 74.152 74.6768 73.684 74.9488 73.34C75.2288 72.988 75.6608 72.812 76.2448 72.812C76.4288 72.812 76.6048 72.832 76.7728 72.872C76.9408 72.904 77.0888 72.948 77.2168 73.004L77.0008 73.76C76.7848 73.664 76.5648 73.616 76.3408 73.616C75.7968 73.616 75.5248 73.992 75.5248 74.744V75.668H76.7608V76.472H75.5248V81.5H74.5408Z" fill="#969DA6"/>
<path d="M492.002 75.84C492.002 76.3627 492.123 76.7593 492.366 77.03C492.618 77.3007 492.968 77.436 493.416 77.436C493.677 77.436 493.948 77.3567 494.228 77.198C494.517 77.03 494.779 76.764 495.012 76.4C494.928 75.616 494.737 75.0467 494.438 74.692C494.139 74.3373 493.771 74.16 493.332 74.16C492.968 74.16 492.655 74.3047 492.394 74.594C492.133 74.8833 492.002 75.2987 492.002 75.84ZM493.038 82.168C492.506 82.168 492.044 82.07 491.652 81.874C491.26 81.678 490.929 81.44 490.658 81.16L491.526 80.18C491.694 80.376 491.904 80.5393 492.156 80.67C492.417 80.7913 492.683 80.852 492.954 80.852C493.327 80.852 493.668 80.7493 493.976 80.544C494.284 80.3387 494.536 79.998 494.732 79.522C494.928 79.0367 495.035 78.3833 495.054 77.562C494.793 77.8793 494.485 78.1313 494.13 78.318C493.775 78.5047 493.435 78.598 493.108 78.598C492.343 78.598 491.717 78.374 491.232 77.926C490.756 77.4687 490.518 76.7733 490.518 75.84C490.518 75.2427 490.644 74.7293 490.896 74.3C491.157 73.8613 491.498 73.5253 491.918 73.292C492.347 73.0493 492.814 72.928 493.318 72.928C493.897 72.928 494.429 73.082 494.914 73.39C495.409 73.698 495.801 74.174 496.09 74.818C496.389 75.4527 496.538 76.2693 496.538 77.268C496.538 78.416 496.375 79.354 496.048 80.082C495.721 80.8007 495.292 81.328 494.76 81.664C494.228 82 493.654 82.168 493.038 82.168ZM500.762 82.168C499.838 82.168 499.1 81.7667 498.55 80.964C498.008 80.1613 497.738 79.0087 497.738 77.506C497.738 76.0033 498.008 74.8647 498.55 74.09C499.1 73.3153 499.838 72.928 500.762 72.928C501.686 72.928 502.418 73.3153 502.96 74.09C503.51 74.8647 503.786 76.0033 503.786 77.506C503.786 79.0087 503.51 80.1613 502.96 80.964C502.418 81.7667 501.686 82.168 500.762 82.168ZM500.762 80.908C501.051 80.908 501.308 80.8007 501.532 80.586C501.756 80.362 501.928 80.0027 502.05 79.508C502.18 79.0133 502.246 78.346 502.246 77.506C502.246 76.666 502.18 76.0033 502.05 75.518C501.928 75.0327 501.756 74.692 501.532 74.496C501.308 74.2907 501.051 74.188 500.762 74.188C500.482 74.188 500.23 74.2907 500.006 74.496C499.782 74.692 499.604 75.0327 499.474 75.518C499.343 76.0033 499.278 76.666 499.278 77.506C499.278 78.346 499.343 79.0133 499.474 79.508C499.604 80.0027 499.782 80.362 500.006 80.586C500.23 80.8007 500.482 80.908 500.762 80.908ZM507.939 82.168C507.015 82.168 506.278 81.7667 505.727 80.964C505.186 80.1613 504.915 79.0087 504.915 77.506C504.915 76.0033 505.186 74.8647 505.727 74.09C506.278 73.3153 507.015 72.928 507.939 72.928C508.863 72.928 509.596 73.3153 510.137 74.09C510.688 74.8647 510.963 76.0033 510.963 77.506C510.963 79.0087 510.688 80.1613 510.137 80.964C509.596 81.7667 508.863 82.168 507.939 82.168ZM507.939 80.908C508.229 80.908 508.485 80.8007 508.709 80.586C508.933 80.362 509.106 80.0027 509.227 79.508C509.358 79.0133 509.423 78.346 509.423 77.506C509.423 76.666 509.358 76.0033 509.227 75.518C509.106 75.0327 508.933 74.692 508.709 74.496C508.485 74.2907 508.229 74.188 507.939 74.188C507.659 74.188 507.407 74.2907 507.183 74.496C506.959 74.692 506.782 75.0327 506.651 75.518C506.521 76.0033 506.455 76.666 506.455 77.506C506.455 78.346 506.521 79.0133 506.651 79.508C506.782 80.0027 506.959 80.362 507.183 80.586C507.407 80.8007 507.659 80.908 507.939 80.908Z" fill="#969DA6"/>
<path d="M520.984 81.5V72.956H521.956V78.74H521.992L524.476 75.668H525.568L523.612 78.008L525.832 81.5H524.752L523.048 78.692L521.956 79.964V81.5H520.984ZM527.885 81.5L526.217 73.628H527.249L528.077 77.912C528.149 78.336 528.225 78.76 528.305 79.184C528.385 79.608 528.461 80.032 528.533 80.456H528.581C528.669 80.032 528.761 79.608 528.857 79.184C528.953 78.752 529.045 78.328 529.133 77.912L530.225 73.628H531.137L532.229 77.912C532.325 78.328 532.421 78.752 532.517 79.184C532.613 79.608 532.709 80.032 532.805 80.456H532.853C532.925 80.032 532.997 79.608 533.069 79.184C533.141 78.752 533.217 78.328 533.297 77.912L534.125 73.628H535.085L533.453 81.5H532.253L531.065 76.76C530.993 76.456 530.925 76.16 530.861 75.872C530.805 75.576 530.745 75.276 530.681 74.972H530.633C530.577 75.276 530.513 75.576 530.441 75.872C530.369 76.16 530.301 76.456 530.237 76.76L529.073 81.5H527.885Z" fill="#596069"/>
<path d="M19.472 123.432L19.104 124.712H21.776L21.408 123.432C21.2373 122.877 21.072 122.307 20.912 121.72C20.7627 121.133 20.6133 120.552 20.464 119.976H20.4C20.2613 120.563 20.112 121.149 19.952 121.736C19.8027 122.312 19.6427 122.877 19.472 123.432ZM15.968 129L19.376 118.536H21.552L24.96 129H23.008L22.192 126.168H18.672L17.856 129H15.968ZM26.2499 129V118.536H32.5539V120.104H28.1059V122.776H31.8659V124.344H28.1059V127.432H32.7139V129H26.2499ZM40.5744 129.192C39.753 129.192 39.0597 129.053 38.4944 128.776C37.9397 128.488 37.481 128.147 37.1184 127.752L37.9984 126.568C38.3077 126.877 38.6597 127.144 39.0544 127.368C39.449 127.581 39.9024 127.688 40.4144 127.688C40.969 127.688 41.417 127.555 41.7584 127.288C42.1104 127.011 42.2864 126.632 42.2864 126.152C42.2864 125.8 42.1957 125.496 42.0144 125.24C41.8437 124.973 41.5397 124.771 41.1024 124.632C40.6757 124.493 40.073 124.424 39.2944 124.424V123.08C40.297 123.08 40.9904 122.925 41.3744 122.616C41.7584 122.307 41.9504 121.917 41.9504 121.448C41.9504 121.021 41.817 120.691 41.5504 120.456C41.2837 120.211 40.9157 120.088 40.4464 120.088C40.0517 120.088 39.689 120.179 39.3584 120.36C39.0277 120.531 38.7077 120.76 38.3984 121.048L37.4544 119.912C37.8917 119.528 38.3557 119.219 38.8464 118.984C39.3477 118.749 39.9024 118.632 40.5104 118.632C41.4917 118.632 42.2864 118.867 42.8944 119.336C43.5024 119.795 43.8064 120.456 43.8064 121.32C43.8064 121.885 43.6464 122.365 43.3264 122.76C43.017 123.144 42.585 123.443 42.0304 123.656V123.72C42.6277 123.88 43.129 124.173 43.5344 124.6C43.9397 125.027 44.1424 125.576 44.1424 126.248C44.1424 126.867 43.977 127.395 43.6464 127.832C43.3264 128.269 42.8944 128.605 42.3504 128.84C41.817 129.075 41.225 129.192 40.5744 129.192Z" fill="#596069"/>
<rect x="53" y="115" width="429" height="16" fill="#DEE0E2"/>
<path d="M65.984 127.644C65.328 127.644 64.744 127.476 64.232 127.14C63.728 126.804 63.332 126.328 63.044 125.712C62.764 125.096 62.624 124.368 62.624 123.528C62.624 122.688 62.764 121.968 63.044 121.368C63.332 120.76 63.728 120.296 64.232 119.976C64.744 119.648 65.328 119.484 65.984 119.484C66.648 119.484 67.232 119.648 67.736 119.976C68.24 120.296 68.636 120.76 68.924 121.368C69.212 121.968 69.356 122.688 69.356 123.528C69.356 124.368 69.212 125.096 68.924 125.712C68.636 126.328 68.24 126.804 67.736 127.14C67.232 127.476 66.648 127.644 65.984 127.644ZM65.984 126.768C66.456 126.768 66.864 126.636 67.208 126.372C67.56 126.1 67.832 125.724 68.024 125.244C68.216 124.756 68.312 124.184 68.312 123.528C68.312 122.552 68.1 121.78 67.676 121.212C67.252 120.644 66.688 120.36 65.984 120.36C65.28 120.36 64.716 120.644 64.292 121.212C63.868 121.78 63.656 122.552 63.656 123.528C63.656 124.184 63.752 124.756 63.944 125.244C64.136 125.724 64.408 126.1 64.76 126.372C65.112 126.636 65.52 126.768 65.984 126.768ZM74.5408 127.5V122.472H72.1048V127.5H71.1208V122.472H70.3288V121.728L71.1208 121.668V120.9C71.1208 120.292 71.2688 119.812 71.5648 119.46C71.8688 119.108 72.3248 118.932 72.9328 118.932C73.3328 118.932 73.6888 119.004 74.0008 119.148L73.7968 119.892C73.5568 119.788 73.2968 119.736 73.0168 119.736C72.7288 119.736 72.5048 119.84 72.3448 120.048C72.1848 120.248 72.1048 120.54 72.1048 120.924V121.668H74.5408V120.744C74.5408 120.152 74.6768 119.684 74.9488 119.34C75.2288 118.988 75.6608 118.812 76.2448 118.812C76.4288 118.812 76.6048 118.832 76.7728 118.872C76.9408 118.904 77.0888 118.948 77.2168 119.004L77.0008 119.76C76.7848 119.664 76.5648 119.616 76.3408 119.616C75.7968 119.616 75.5248 119.992 75.5248 120.744V121.668H76.7608V122.472H75.5248V127.5H74.5408Z" fill="#969DA6"/>
<path d="M492.002 121.84C492.002 122.363 492.123 122.759 492.366 123.03C492.618 123.301 492.968 123.436 493.416 123.436C493.677 123.436 493.948 123.357 494.228 123.198C494.517 123.03 494.779 122.764 495.012 122.4C494.928 121.616 494.737 121.047 494.438 120.692C494.139 120.337 493.771 120.16 493.332 120.16C492.968 120.16 492.655 120.305 492.394 120.594C492.133 120.883 492.002 121.299 492.002 121.84ZM493.038 128.168C492.506 128.168 492.044 128.07 491.652 127.874C491.26 127.678 490.929 127.44 490.658 127.16L491.526 126.18C491.694 126.376 491.904 126.539 492.156 126.67C492.417 126.791 492.683 126.852 492.954 126.852C493.327 126.852 493.668 126.749 493.976 126.544C494.284 126.339 494.536 125.998 494.732 125.522C494.928 125.037 495.035 124.383 495.054 123.562C494.793 123.879 494.485 124.131 494.13 124.318C493.775 124.505 493.435 124.598 493.108 124.598C492.343 124.598 491.717 124.374 491.232 123.926C490.756 123.469 490.518 122.773 490.518 121.84C490.518 121.243 490.644 120.729 490.896 120.3C491.157 119.861 491.498 119.525 491.918 119.292C492.347 119.049 492.814 118.928 493.318 118.928C493.897 118.928 494.429 119.082 494.914 119.39C495.409 119.698 495.801 120.174 496.09 120.818C496.389 121.453 496.538 122.269 496.538 123.268C496.538 124.416 496.375 125.354 496.048 126.082C495.721 126.801 495.292 127.328 494.76 127.664C494.228 128 493.654 128.168 493.038 128.168ZM500.762 128.168C499.838 128.168 499.1 127.767 498.55 126.964C498.008 126.161 497.738 125.009 497.738 123.506C497.738 122.003 498.008 120.865 498.55 120.09C499.1 119.315 499.838 118.928 500.762 118.928C501.686 118.928 502.418 119.315 502.96 120.09C503.51 120.865 503.786 122.003 503.786 123.506C503.786 125.009 503.51 126.161 502.96 126.964C502.418 127.767 501.686 128.168 500.762 128.168ZM500.762 126.908C501.051 126.908 501.308 126.801 501.532 126.586C501.756 126.362 501.928 126.003 502.05 125.508C502.18 125.013 502.246 124.346 502.246 123.506C502.246 122.666 502.18 122.003 502.05 121.518C501.928 121.033 501.756 120.692 501.532 120.496C501.308 120.291 501.051 120.188 500.762 120.188C500.482 120.188 500.23 120.291 500.006 120.496C499.782 120.692 499.604 121.033 499.474 121.518C499.343 122.003 499.278 122.666 499.278 123.506C499.278 124.346 499.343 125.013 499.474 125.508C499.604 126.003 499.782 126.362 500.006 126.586C500.23 126.801 500.482 126.908 500.762 126.908ZM507.939 128.168C507.015 128.168 506.278 127.767 505.727 126.964C505.186 126.161 504.915 125.009 504.915 123.506C504.915 122.003 505.186 120.865 505.727 120.09C506.278 119.315 507.015 118.928 507.939 118.928C508.863 118.928 509.596 119.315 510.137 120.09C510.688 120.865 510.963 122.003 510.963 123.506C510.963 125.009 510.688 126.161 510.137 126.964C509.596 127.767 508.863 128.168 507.939 128.168ZM507.939 126.908C508.229 126.908 508.485 126.801 508.709 126.586C508.933 126.362 509.106 126.003 509.227 125.508C509.358 125.013 509.423 124.346 509.423 123.506C509.423 122.666 509.358 122.003 509.227 121.518C509.106 121.033 508.933 120.692 508.709 120.496C508.485 120.291 508.229 120.188 507.939 120.188C507.659 120.188 507.407 120.291 507.183 120.496C506.959 120.692 506.782 121.033 506.651 121.518C506.521 122.003 506.455 122.666 506.455 123.506C506.455 124.346 506.521 125.013 506.651 125.508C506.782 126.003 506.959 126.362 507.183 126.586C507.407 126.801 507.659 126.908 507.939 126.908Z" fill="#969DA6"/>
<path d="M520.984 127.5V118.956H521.956V124.74H521.992L524.476 121.668H525.568L523.612 124.008L525.832 127.5H524.752L523.048 124.692L521.956 125.964V127.5H520.984ZM527.885 127.5L526.217 119.628H527.249L528.077 123.912C528.149 124.336 528.225 124.76 528.305 125.184C528.385 125.608 528.461 126.032 528.533 126.456H528.581C528.669 126.032 528.761 125.608 528.857 125.184C528.953 124.752 529.045 124.328 529.133 123.912L530.225 119.628H531.137L532.229 123.912C532.325 124.328 532.421 124.752 532.517 125.184C532.613 125.608 532.709 126.032 532.805 126.456H532.853C532.925 126.032 532.997 125.608 533.069 125.184C533.141 124.752 533.217 124.328 533.297 123.912L534.125 119.628H535.085L533.453 127.5H532.253L531.065 122.76C530.993 122.456 530.925 122.16 530.861 121.872C530.805 121.576 530.745 121.276 530.681 120.972H530.633C530.577 121.276 530.513 121.576 530.441 121.872C530.369 122.16 530.301 122.456 530.237 122.76L529.073 127.5H527.885Z" fill="#596069"/>
<path d="M19.472 169.432L19.104 170.712H21.776L21.408 169.432C21.2373 168.877 21.072 168.307 20.912 167.72C20.7627 167.133 20.6133 166.552 20.464 165.976H20.4C20.2613 166.563 20.112 167.149 19.952 167.736C19.8027 168.312 19.6427 168.877 19.472 169.432ZM15.968 175L19.376 164.536H21.552L24.96 175H23.008L22.192 172.168H18.672L17.856 175H15.968ZM26.2499 175V164.536H32.5539V166.104H28.1059V168.776H31.8659V170.344H28.1059V173.432H32.7139V175H26.2499ZM38.8464 170.952H41.5184V168.648C41.5184 168.349 41.529 167.997 41.5504 167.592C41.5717 167.187 41.5877 166.835 41.5984 166.536H41.5344C41.4064 166.803 41.273 167.064 41.1344 167.32C40.9957 167.576 40.8517 167.843 40.7024 168.12L38.8464 170.952ZM41.5184 175V172.376H37.0224V171.128L41.0544 164.824H43.2464V170.952H44.5264V172.376H43.2464V175H41.5184Z" fill="#596069"/>
<rect x="53" y="161" width="429" height="16" fill="#DEE0E2"/>
<path d="M65.984 173.644C65.328 173.644 64.744 173.476 64.232 173.14C63.728 172.804 63.332 172.328 63.044 171.712C62.764 171.096 62.624 170.368 62.624 169.528C62.624 168.688 62.764 167.968 63.044 167.368C63.332 166.76 63.728 166.296 64.232 165.976C64.744 165.648 65.328 165.484 65.984 165.484C66.648 165.484 67.232 165.648 67.736 165.976C68.24 166.296 68.636 166.76 68.924 167.368C69.212 167.968 69.356 168.688 69.356 169.528C69.356 170.368 69.212 171.096 68.924 171.712C68.636 172.328 68.24 172.804 67.736 173.14C67.232 173.476 66.648 173.644 65.984 173.644ZM65.984 172.768C66.456 172.768 66.864 172.636 67.208 172.372C67.56 172.1 67.832 171.724 68.024 171.244C68.216 170.756 68.312 170.184 68.312 169.528C68.312 168.552 68.1 167.78 67.676 167.212C67.252 166.644 66.688 166.36 65.984 166.36C65.28 166.36 64.716 166.644 64.292 167.212C63.868 167.78 63.656 168.552 63.656 169.528C63.656 170.184 63.752 170.756 63.944 171.244C64.136 171.724 64.408 172.1 64.76 172.372C65.112 172.636 65.52 172.768 65.984 172.768ZM74.5408 173.5V168.472H72.1048V173.5H71.1208V168.472H70.3288V167.728L71.1208 167.668V166.9C71.1208 166.292 71.2688 165.812 71.5648 165.46C71.8688 165.108 72.3248 164.932 72.9328 164.932C73.3328 164.932 73.6888 165.004 74.0008 165.148L73.7968 165.892C73.5568 165.788 73.2968 165.736 73.0168 165.736C72.7288 165.736 72.5048 165.84 72.3448 166.048C72.1848 166.248 72.1048 166.54 72.1048 166.924V167.668H74.5408V166.744C74.5408 166.152 74.6768 165.684 74.9488 165.34C75.2288 164.988 75.6608 164.812 76.2448 164.812C76.4288 164.812 76.6048 164.832 76.7728 164.872C76.9408 164.904 77.0888 164.948 77.2168 165.004L77.0008 165.76C76.7848 165.664 76.5648 165.616 76.3408 165.616C75.7968 165.616 75.5248 165.992 75.5248 166.744V167.668H76.7608V168.472H75.5248V173.5H74.5408Z" fill="#969DA6"/>
<path d="M492.002 167.84C492.002 168.363 492.123 168.759 492.366 169.03C492.618 169.301 492.968 169.436 493.416 169.436C493.677 169.436 493.948 169.357 494.228 169.198C494.517 169.03 494.779 168.764 495.012 168.4C494.928 167.616 494.737 167.047 494.438 166.692C494.139 166.337 493.771 166.16 493.332 166.16C492.968 166.16 492.655 166.305 492.394 166.594C492.133 166.883 492.002 167.299 492.002 167.84ZM493.038 174.168C492.506 174.168 492.044 174.07 491.652 173.874C491.26 173.678 490.929 173.44 490.658 173.16L491.526 172.18C491.694 172.376 491.904 172.539 492.156 172.67C492.417 172.791 492.683 172.852 492.954 172.852C493.327 172.852 493.668 172.749 493.976 172.544C494.284 172.339 494.536 171.998 494.732 171.522C494.928 171.037 495.035 170.383 495.054 169.562C494.793 169.879 494.485 170.131 494.13 170.318C493.775 170.505 493.435 170.598 493.108 170.598C492.343 170.598 491.717 170.374 491.232 169.926C490.756 169.469 490.518 168.773 490.518 167.84C490.518 167.243 490.644 166.729 490.896 166.3C491.157 165.861 491.498 165.525 491.918 165.292C492.347 165.049 492.814 164.928 493.318 164.928C493.897 164.928 494.429 165.082 494.914 165.39C495.409 165.698 495.801 166.174 496.09 166.818C496.389 167.453 496.538 168.269 496.538 169.268C496.538 170.416 496.375 171.354 496.048 172.082C495.721 172.801 495.292 173.328 494.76 173.664C494.228 174 493.654 174.168 493.038 174.168ZM500.762 174.168C499.838 174.168 499.1 173.767 498.55 172.964C498.008 172.161 497.738 171.009 497.738 169.506C497.738 168.003 498.008 166.865 498.55 166.09C499.1 165.315 499.838 164.928 500.762 164.928C501.686 164.928 502.418 165.315 502.96 166.09C503.51 166.865 503.786 168.003 503.786 169.506C503.786 171.009 503.51 172.161 502.96 172.964C502.418 173.767 501.686 174.168 500.762 174.168ZM500.762 172.908C501.051 172.908 501.308 172.801 501.532 172.586C501.756 172.362 501.928 172.003 502.05 171.508C502.18 171.013 502.246 170.346 502.246 169.506C502.246 168.666 502.18 168.003 502.05 167.518C501.928 167.033 501.756 166.692 501.532 166.496C501.308 166.291 501.051 166.188 500.762 166.188C500.482 166.188 500.23 166.291 500.006 166.496C499.782 166.692 499.604 167.033 499.474 167.518C499.343 168.003 499.278 168.666 499.278 169.506C499.278 170.346 499.343 171.013 499.474 171.508C499.604 172.003 499.782 172.362 500.006 172.586C500.23 172.801 500.482 172.908 500.762 172.908ZM507.939 174.168C507.015 174.168 506.278 173.767 505.727 172.964C505.186 172.161 504.915 171.009 504.915 169.506C504.915 168.003 505.186 166.865 505.727 166.09C506.278 165.315 507.015 164.928 507.939 164.928C508.863 164.928 509.596 165.315 510.137 166.09C510.688 166.865 510.963 168.003 510.963 169.506C510.963 171.009 510.688 172.161 510.137 172.964C509.596 173.767 508.863 174.168 507.939 174.168ZM507.939 172.908C508.229 172.908 508.485 172.801 508.709 172.586C508.933 172.362 509.106 172.003 509.227 171.508C509.358 171.013 509.423 170.346 509.423 169.506C509.423 168.666 509.358 168.003 509.227 167.518C509.106 167.033 508.933 166.692 508.709 166.496C508.485 166.291 508.229 166.188 507.939 166.188C507.659 166.188 507.407 166.291 507.183 166.496C506.959 166.692 506.782 167.033 506.651 167.518C506.521 168.003 506.455 168.666 506.455 169.506C506.455 170.346 506.521 171.013 506.651 171.508C506.782 172.003 506.959 172.362 507.183 172.586C507.407 172.801 507.659 172.908 507.939 172.908Z" fill="#969DA6"/>
<path d="M520.984 173.5V164.956H521.956V170.74H521.992L524.476 167.668H525.568L523.612 170.008L525.832 173.5H524.752L523.048 170.692L521.956 171.964V173.5H520.984ZM527.885 173.5L526.217 165.628H527.249L528.077 169.912C528.149 170.336 528.225 170.76 528.305 171.184C528.385 171.608 528.461 172.032 528.533 172.456H528.581C528.669 172.032 528.761 171.608 528.857 171.184C528.953 170.752 529.045 170.328 529.133 169.912L530.225 165.628H531.137L532.229 169.912C532.325 170.328 532.421 170.752 532.517 171.184C532.613 171.608 532.709 172.032 532.805 172.456H532.853C532.925 172.032 532.997 171.608 533.069 171.184C533.141 170.752 533.217 170.328 533.297 169.912L534.125 165.628H535.085L533.453 173.5H532.253L531.065 168.76C530.993 168.456 530.925 168.16 530.861 167.872C530.805 167.576 530.745 167.276 530.681 166.972H530.633C530.577 167.276 530.513 167.576 530.441 167.872C530.369 168.16 530.301 168.456 530.237 168.76L529.073 173.5H527.885Z" fill="#596069"/>
<rect x="16.5" y="200.5" width="251" height="57" rx="7.5" fill="#F4F5F6"/>
<path d="M50.212 221V213.968H47.836V213.128H53.596V213.968H51.22V221H50.212ZM56.6287 221.144C56.1567 221.144 55.7127 221.024 55.2967 220.784C54.8887 220.544 54.5567 220.196 54.3007 219.74C54.0527 219.284 53.9287 218.736 53.9287 218.096C53.9287 217.44 54.0527 216.884 54.3007 216.428C54.5567 215.972 54.8887 215.624 55.2967 215.384C55.7127 215.144 56.1567 215.024 56.6287 215.024C57.1087 215.024 57.5527 215.144 57.9607 215.384C58.3687 215.624 58.6967 215.972 58.9447 216.428C59.2007 216.884 59.3287 217.44 59.3287 218.096C59.3287 218.736 59.2007 219.284 58.9447 219.74C58.6967 220.196 58.3687 220.544 57.9607 220.784C57.5527 221.024 57.1087 221.144 56.6287 221.144ZM56.6287 220.328C57.1327 220.328 57.5367 220.124 57.8407 219.716C58.1527 219.3 58.3087 218.76 58.3087 218.096C58.3087 217.424 58.1527 216.88 57.8407 216.464C57.5367 216.048 57.1327 215.84 56.6287 215.84C56.1327 215.84 55.7287 216.048 55.4167 216.464C55.1047 216.88 54.9487 217.424 54.9487 218.096C54.9487 218.76 55.1047 219.3 55.4167 219.716C55.7287 220.124 56.1327 220.328 56.6287 220.328ZM62.7414 221.144C62.1174 221.144 61.6814 220.964 61.4334 220.604C61.1934 220.244 61.0734 219.776 61.0734 219.2V215.972H60.2094V215.228L61.1214 215.168L61.2414 213.536H62.0694V215.168H63.6414V215.972H62.0694V219.212C62.0694 219.572 62.1334 219.852 62.2614 220.052C62.3974 220.244 62.6334 220.34 62.9694 220.34C63.0734 220.34 63.1854 220.324 63.3054 220.292C63.4254 220.252 63.5334 220.216 63.6294 220.184L63.8214 220.928C63.6614 220.984 63.4854 221.032 63.2934 221.072C63.1094 221.12 62.9254 221.144 62.7414 221.144ZM66.2863 221.144C65.7983 221.144 65.3903 221 65.0623 220.712C64.7423 220.416 64.5823 220.008 64.5823 219.488C64.5823 218.848 64.8663 218.36 65.4343 218.024C66.0103 217.68 66.9183 217.44 68.1583 217.304C68.1583 217.056 68.1223 216.82 68.0503 216.596C67.9863 216.372 67.8663 216.192 67.6903 216.056C67.5223 215.912 67.2783 215.84 66.9583 215.84C66.6223 215.84 66.3063 215.904 66.0103 216.032C65.7143 216.16 65.4503 216.304 65.2183 216.464L64.8343 215.78C65.1063 215.604 65.4383 215.436 65.8303 215.276C66.2303 215.108 66.6623 215.024 67.1263 215.024C67.8383 215.024 68.3543 215.244 68.6743 215.684C68.9943 216.116 69.1543 216.696 69.1543 217.424V221H68.3383L68.2543 220.304H68.2183C67.9463 220.528 67.6463 220.724 67.3183 220.892C66.9983 221.06 66.6543 221.144 66.2863 221.144ZM66.5743 220.352C66.8543 220.352 67.1183 220.284 67.3663 220.148C67.6143 220.012 67.8783 219.82 68.1583 219.572V217.952C67.1903 218.072 66.5103 218.252 66.1183 218.492C65.7343 218.732 65.5423 219.04 65.5423 219.416C65.5423 219.744 65.6423 219.984 65.8423 220.136C66.0423 220.28 66.2863 220.352 66.5743 220.352ZM72.2732 221.144C71.9052 221.144 71.6372 221.032 71.4692 220.808C71.3092 220.576 71.2292 220.248 71.2292 219.824V212.456H72.2132V219.896C72.2132 220.048 72.2412 220.16 72.2972 220.232C72.3532 220.296 72.4172 220.328 72.4892 220.328C72.5212 220.328 72.5492 220.328 72.5732 220.328C72.6052 220.32 72.6492 220.312 72.7052 220.304L72.8372 221.048C72.7732 221.08 72.6972 221.104 72.6092 221.12C72.5212 221.136 72.4092 221.144 72.2732 221.144ZM78.7541 223.112C78.2581 222.304 77.8701 221.46 77.5901 220.58C77.3101 219.692 77.1701 218.72 77.1701 217.664C77.1701 216.608 77.3101 215.636 77.5901 214.748C77.8701 213.86 78.2581 213.016 78.7541 212.216L79.3661 212.504C78.9021 213.264 78.5541 214.088 78.3221 214.976C78.0981 215.856 77.9861 216.752 77.9861 217.664C77.9861 218.576 78.0981 219.476 78.3221 220.364C78.5541 221.244 78.9021 222.064 79.3661 222.824L78.7541 223.112ZM82.5789 221L80.0589 213.128H81.1269L82.3869 217.376C82.5309 217.84 82.6549 218.276 82.7589 218.684C82.8709 219.084 83.0029 219.516 83.1549 219.98H83.2029C83.3469 219.516 83.4749 219.084 83.5869 218.684C83.6989 218.276 83.8229 217.84 83.9589 217.376L85.2189 213.128H86.2389L83.7429 221H82.5789ZM88.5332 221.144C88.0452 221.144 87.6372 221 87.3092 220.712C86.9892 220.416 86.8292 220.008 86.8292 219.488C86.8292 218.848 87.1132 218.36 87.6812 218.024C88.2572 217.68 89.1652 217.44 90.4052 217.304C90.4052 217.056 90.3692 216.82 90.2972 216.596C90.2332 216.372 90.1132 216.192 89.9372 216.056C89.7692 215.912 89.5252 215.84 89.2052 215.84C88.8692 215.84 88.5532 215.904 88.2572 216.032C87.9612 216.16 87.6972 216.304 87.4652 216.464L87.0812 215.78C87.3532 215.604 87.6852 215.436 88.0772 215.276C88.4772 215.108 88.9092 215.024 89.3732 215.024C90.0852 215.024 90.6012 215.244 90.9212 215.684C91.2412 216.116 91.4012 216.696 91.4012 217.424V221H90.5852L90.5012 220.304H90.4652C90.1932 220.528 89.8932 220.724 89.5652 220.892C89.2452 221.06 88.9012 221.144 88.5332 221.144ZM88.8212 220.352C89.1012 220.352 89.3652 220.284 89.6132 220.148C89.8612 220.012 90.1252 219.82 90.4052 219.572V217.952C89.4372 218.072 88.7572 218.252 88.3652 218.492C87.9812 218.732 87.7892 219.04 87.7892 219.416C87.7892 219.744 87.8892 219.984 88.0892 220.136C88.2892 220.28 88.5332 220.352 88.8212 220.352ZM94.52 221.144C94.152 221.144 93.884 221.032 93.716 220.808C93.556 220.576 93.476 220.248 93.476 219.824V212.456H94.46V219.896C94.46 220.048 94.488 220.16 94.544 220.232C94.6 220.296 94.664 220.328 94.736 220.328C94.768 220.328 94.796 220.328 94.82 220.328C94.852 220.32 94.896 220.312 94.952 220.304L95.084 221.048C95.02 221.08 94.944 221.104 94.856 221.12C94.768 221.136 94.656 221.144 94.52 221.144ZM98.4786 221.144C97.8626 221.144 97.4106 220.952 97.1226 220.568C96.8346 220.176 96.6906 219.608 96.6906 218.864V215.168H97.6866V218.732C97.6866 219.276 97.7706 219.672 97.9386 219.92C98.1146 220.168 98.3946 220.292 98.7786 220.292C99.0826 220.292 99.3506 220.216 99.5826 220.064C99.8226 219.904 100.079 219.652 100.351 219.308V215.168H101.335V221H100.519L100.435 220.088H100.399C100.127 220.408 99.8386 220.664 99.5346 220.856C99.2306 221.048 98.8786 221.144 98.4786 221.144ZM105.906 221.144C105.386 221.144 104.914 221.024 104.49 220.784C104.066 220.536 103.73 220.184 103.482 219.728C103.234 219.272 103.11 218.728 103.11 218.096C103.11 217.456 103.234 216.908 103.482 216.452C103.738 215.996 104.066 215.644 104.466 215.396C104.866 215.148 105.286 215.024 105.726 215.024C106.47 215.024 107.042 215.272 107.442 215.768C107.85 216.264 108.054 216.928 108.054 217.76C108.054 217.864 108.05 217.968 108.042 218.072C108.042 218.168 108.034 218.252 108.018 218.324H104.082C104.122 218.94 104.314 219.432 104.658 219.8C105.01 220.168 105.466 220.352 106.026 220.352C106.306 220.352 106.562 220.312 106.794 220.232C107.034 220.144 107.262 220.032 107.478 219.896L107.826 220.544C107.578 220.704 107.294 220.844 106.974 220.964C106.662 221.084 106.306 221.144 105.906 221.144ZM104.07 217.616H107.19C107.19 217.024 107.062 216.576 106.806 216.272C106.558 215.96 106.206 215.804 105.75 215.804C105.342 215.804 104.974 215.964 104.646 216.284C104.326 216.596 104.134 217.04 104.07 217.616ZM114.369 221.144C113.641 221.144 113.057 220.88 112.617 220.352C112.177 219.816 111.957 219.064 111.957 218.096C111.957 217.464 112.073 216.92 112.305 216.464C112.545 216 112.857 215.644 113.241 215.396C113.633 215.148 114.049 215.024 114.489 215.024C114.825 215.024 115.117 215.084 115.365 215.204C115.613 215.324 115.865 215.488 116.121 215.696L116.073 214.7V212.456H117.069V221H116.253L116.169 220.316H116.133C115.909 220.54 115.645 220.736 115.341 220.904C115.037 221.064 114.713 221.144 114.369 221.144ZM114.585 220.316C115.097 220.316 115.593 220.048 116.073 219.512V216.464C115.825 216.24 115.585 216.084 115.353 215.996C115.129 215.9 114.897 215.852 114.657 215.852C114.345 215.852 114.061 215.948 113.805 216.14C113.557 216.324 113.357 216.584 113.205 216.92C113.053 217.248 112.977 217.636 112.977 218.084C112.977 218.78 113.117 219.328 113.397 219.728C113.677 220.12 114.073 220.316 114.585 220.316ZM121.638 221.144C121.118 221.144 120.646 221.024 120.222 220.784C119.798 220.536 119.462 220.184 119.214 219.728C118.966 219.272 118.842 218.728 118.842 218.096C118.842 217.456 118.966 216.908 119.214 216.452C119.47 215.996 119.798 215.644 120.198 215.396C120.598 215.148 121.018 215.024 121.458 215.024C122.202 215.024 122.774 215.272 123.174 215.768C123.582 216.264 123.786 216.928 123.786 217.76C123.786 217.864 123.782 217.968 123.774 218.072C123.774 218.168 123.766 218.252 123.75 218.324H119.814C119.854 218.94 120.046 219.432 120.39 219.8C120.742 220.168 121.198 220.352 121.758 220.352C122.038 220.352 122.294 220.312 122.526 220.232C122.766 220.144 122.994 220.032 123.21 219.896L123.558 220.544C123.31 220.704 123.026 220.844 122.706 220.964C122.394 221.084 122.038 221.144 121.638 221.144ZM119.802 217.616H122.922C122.922 217.024 122.794 216.576 122.538 216.272C122.29 215.96 121.938 215.804 121.482 215.804C121.074 215.804 120.706 215.964 120.378 216.284C120.058 216.596 119.866 217.04 119.802 217.616ZM125.467 223.46V215.168H126.283L126.367 215.84H126.403C126.667 215.616 126.955 215.424 127.267 215.264C127.587 215.104 127.919 215.024 128.263 215.024C129.015 215.024 129.587 215.296 129.979 215.84C130.371 216.376 130.567 217.096 130.567 218C130.567 218.656 130.447 219.22 130.207 219.692C129.975 220.164 129.667 220.524 129.283 220.772C128.907 221.02 128.495 221.144 128.047 221.144C127.775 221.144 127.503 221.084 127.231 220.964C126.967 220.844 126.699 220.68 126.427 220.472L126.451 221.492V223.46H125.467ZM127.879 220.316C128.359 220.316 128.755 220.112 129.067 219.704C129.387 219.288 129.547 218.72 129.547 218C129.547 217.36 129.427 216.844 129.187 216.452C128.955 216.052 128.563 215.852 128.011 215.852C127.763 215.852 127.511 215.92 127.255 216.056C127.007 216.192 126.739 216.388 126.451 216.644V219.704C126.715 219.928 126.971 220.088 127.219 220.184C127.467 220.272 127.687 220.316 127.879 220.316ZM134.727 221.144C134.207 221.144 133.735 221.024 133.311 220.784C132.887 220.536 132.551 220.184 132.303 219.728C132.055 219.272 131.931 218.728 131.931 218.096C131.931 217.456 132.055 216.908 132.303 216.452C132.559 215.996 132.887 215.644 133.287 215.396C133.687 215.148 134.107 215.024 134.547 215.024C135.291 215.024 135.863 215.272 136.263 215.768C136.671 216.264 136.875 216.928 136.875 217.76C136.875 217.864 136.871 217.968 136.863 218.072C136.863 218.168 136.855 218.252 136.839 218.324H132.903C132.943 218.94 133.135 219.432 133.479 219.8C133.831 220.168 134.287 220.352 134.847 220.352C135.127 220.352 135.383 220.312 135.615 220.232C135.855 220.144 136.083 220.032 136.299 219.896L136.647 220.544C136.399 220.704 136.115 220.844 135.795 220.964C135.483 221.084 135.127 221.144 134.727 221.144ZM132.891 217.616H136.011C136.011 217.024 135.883 216.576 135.627 216.272C135.379 215.96 135.027 215.804 134.571 215.804C134.163 215.804 133.795 215.964 133.467 216.284C133.147 216.596 132.955 217.04 132.891 217.616ZM138.556 221V215.168H139.372L139.456 216.008H139.492C139.772 215.728 140.068 215.496 140.38 215.312C140.692 215.12 141.048 215.024 141.448 215.024C142.064 215.024 142.512 215.22 142.792 215.612C143.08 215.996 143.224 216.56 143.224 217.304V221H142.24V217.436C142.24 216.892 142.152 216.496 141.976 216.248C141.8 216 141.52 215.876 141.136 215.876C140.84 215.876 140.572 215.952 140.332 216.104C140.1 216.256 139.836 216.48 139.54 216.776V221H138.556ZM147.351 221.144C146.623 221.144 146.039 220.88 145.599 220.352C145.159 219.816 144.939 219.064 144.939 218.096C144.939 217.464 145.055 216.92 145.287 216.464C145.527 216 145.839 215.644 146.223 215.396C146.615 215.148 147.031 215.024 147.471 215.024C147.807 215.024 148.099 215.084 148.347 215.204C148.595 215.324 148.847 215.488 149.103 215.696L149.055 214.7V212.456H150.051V221H149.235L149.151 220.316H149.115C148.891 220.54 148.627 220.736 148.323 220.904C148.019 221.064 147.695 221.144 147.351 221.144ZM147.567 220.316C148.079 220.316 148.575 220.048 149.055 219.512V216.464C148.807 216.24 148.567 216.084 148.335 215.996C148.111 215.9 147.879 215.852 147.639 215.852C147.327 215.852 147.043 215.948 146.787 216.14C146.539 216.324 146.339 216.584 146.187 216.92C146.035 217.248 145.959 217.636 145.959 218.084C145.959 218.78 146.099 219.328 146.379 219.728C146.659 220.12 147.055 220.316 147.567 220.316ZM153.779 221.144C153.363 221.144 152.967 221.068 152.591 220.916C152.215 220.756 151.887 220.564 151.607 220.34L152.099 219.68C152.355 219.88 152.619 220.048 152.891 220.184C153.163 220.312 153.471 220.376 153.815 220.376C154.199 220.376 154.487 220.288 154.679 220.112C154.871 219.928 154.967 219.712 154.967 219.464C154.967 219.264 154.899 219.096 154.763 218.96C154.635 218.824 154.467 218.712 154.259 218.624C154.059 218.528 153.851 218.44 153.635 218.36C153.363 218.256 153.095 218.14 152.831 218.012C152.567 217.876 152.351 217.704 152.183 217.496C152.015 217.28 151.931 217.008 151.931 216.68C151.931 216.208 152.107 215.816 152.459 215.504C152.819 215.184 153.315 215.024 153.947 215.024C154.307 215.024 154.643 215.088 154.955 215.216C155.267 215.344 155.535 215.5 155.759 215.684L155.279 216.308C155.079 216.156 154.871 216.032 154.655 215.936C154.439 215.84 154.203 215.792 153.947 215.792C153.579 215.792 153.307 215.876 153.131 216.044C152.963 216.212 152.879 216.408 152.879 216.632C152.879 216.816 152.939 216.968 153.059 217.088C153.179 217.2 153.335 217.3 153.527 217.388C153.719 217.468 153.923 217.552 154.139 217.64C154.419 217.744 154.695 217.864 154.967 218C155.239 218.128 155.463 218.304 155.639 218.528C155.823 218.744 155.915 219.036 155.915 219.404C155.915 219.716 155.831 220.004 155.663 220.268C155.503 220.532 155.263 220.744 154.943 220.904C154.631 221.064 154.243 221.144 153.779 221.144ZM162.433 221.144C161.961 221.144 161.517 221.024 161.101 220.784C160.693 220.544 160.361 220.196 160.105 219.74C159.857 219.284 159.733 218.736 159.733 218.096C159.733 217.44 159.857 216.884 160.105 216.428C160.361 215.972 160.693 215.624 161.101 215.384C161.517 215.144 161.961 215.024 162.433 215.024C162.913 215.024 163.357 215.144 163.765 215.384C164.173 215.624 164.501 215.972 164.749 216.428C165.005 216.884 165.133 217.44 165.133 218.096C165.133 218.736 165.005 219.284 164.749 219.74C164.501 220.196 164.173 220.544 163.765 220.784C163.357 221.024 162.913 221.144 162.433 221.144ZM162.433 220.328C162.937 220.328 163.341 220.124 163.645 219.716C163.957 219.3 164.113 218.76 164.113 218.096C164.113 217.424 163.957 216.88 163.645 216.464C163.341 216.048 162.937 215.84 162.433 215.84C161.937 215.84 161.533 216.048 161.221 216.464C160.909 216.88 160.753 217.424 160.753 218.096C160.753 218.76 160.909 219.3 161.221 219.716C161.533 220.124 161.937 220.328 162.433 220.328ZM166.909 221V215.168H167.725L167.809 216.008H167.845C168.125 215.728 168.421 215.496 168.733 215.312C169.045 215.12 169.401 215.024 169.801 215.024C170.417 215.024 170.865 215.22 171.145 215.612C171.433 215.996 171.577 216.56 171.577 217.304V221H170.593V217.436C170.593 216.892 170.505 216.496 170.329 216.248C170.153 216 169.873 215.876 169.489 215.876C169.193 215.876 168.925 215.952 168.685 216.104C168.453 216.256 168.189 216.48 167.893 216.776V221H166.909ZM177.805 216.596L177.433 217.796H179.797L179.425 216.596C179.281 216.156 179.145 215.72 179.017 215.288C178.889 214.848 178.761 214.4 178.633 213.944H178.585C178.465 214.4 178.341 214.848 178.213 215.288C178.085 215.72 177.949 216.156 177.805 216.596ZM175.405 221L178.069 213.128H179.197L181.861 221H180.793L180.049 218.6H177.181L176.425 221H175.405ZM183.217 221V213.128H187.753V213.968H184.213V216.44H187.201V217.292H184.213V220.148H187.873V221H183.217ZM192.331 221V215.168H193.147L193.231 216.224H193.267C193.467 215.856 193.711 215.564 193.999 215.348C194.287 215.132 194.595 215.024 194.923 215.024C195.155 215.024 195.363 215.064 195.547 215.144L195.355 216.008C195.259 215.976 195.171 215.952 195.091 215.936C195.011 215.92 194.911 215.912 194.791 215.912C194.543 215.912 194.283 216.012 194.011 216.212C193.747 216.412 193.515 216.76 193.315 217.256V221H192.331ZM198.435 221.144C197.819 221.144 197.367 220.952 197.079 220.568C196.791 220.176 196.647 219.608 196.647 218.864V215.168H197.643V218.732C197.643 219.276 197.727 219.672 197.895 219.92C198.071 220.168 198.351 220.292 198.735 220.292C199.039 220.292 199.307 220.216 199.539 220.064C199.779 219.904 200.035 219.652 200.307 219.308V215.168H201.291V221H200.475L200.391 220.088H200.355C200.083 220.408 199.795 220.664 199.491 220.856C199.187 221.048 198.835 221.144 198.435 221.144ZM203.499 221V215.168H204.315L204.399 216.008H204.435C204.715 215.728 205.011 215.496 205.323 215.312C205.635 215.12 205.991 215.024 206.391 215.024C207.007 215.024 207.455 215.22 207.735 215.612C208.023 215.996 208.167 216.56 208.167 217.304V221H207.183V217.436C207.183 216.892 207.095 216.496 206.919 216.248C206.743 216 206.463 215.876 206.079 215.876C205.783 215.876 205.515 215.952 205.275 216.104C205.043 216.256 204.779 216.48 204.483 216.776V221H203.499ZM210.301 221V215.168H211.117L211.201 216.008H211.237C211.517 215.728 211.813 215.496 212.125 215.312C212.437 215.12 212.793 215.024 213.193 215.024C213.809 215.024 214.257 215.22 214.537 215.612C214.825 215.996 214.969 216.56 214.969 217.304V221H213.985V217.436C213.985 216.892 213.897 216.496 213.721 216.248C213.545 216 213.265 215.876 212.881 215.876C212.585 215.876 212.317 215.952 212.077 216.104C211.845 216.256 211.581 216.48 211.285 216.776V221H210.301ZM217.104 221V215.168H218.088V221H217.104ZM217.608 213.968C217.416 213.968 217.256 213.912 217.128 213.8C217.008 213.68 216.948 213.52 216.948 213.32C216.948 213.128 217.008 212.972 217.128 212.852C217.256 212.732 217.416 212.672 217.608 212.672C217.8 212.672 217.956 212.732 218.076 212.852C218.204 212.972 218.268 213.128 218.268 213.32C218.268 213.52 218.204 213.68 218.076 213.8C217.956 213.912 217.8 213.968 217.608 213.968ZM220.297 221V215.168H221.113L221.197 216.008H221.233C221.513 215.728 221.809 215.496 222.121 215.312C222.433 215.12 222.789 215.024 223.189 215.024C223.805 215.024 224.253 215.22 224.533 215.612C224.821 215.996 224.965 216.56 224.965 217.304V221H223.981V217.436C223.981 216.892 223.893 216.496 223.717 216.248C223.541 216 223.261 215.876 222.877 215.876C222.581 215.876 222.313 215.952 222.073 216.104C221.841 216.256 221.577 216.48 221.281 216.776V221H220.297ZM229.067 223.688C228.355 223.688 227.775 223.552 227.327 223.28C226.879 223.008 226.655 222.62 226.655 222.116C226.655 221.868 226.731 221.628 226.883 221.396C227.035 221.172 227.243 220.972 227.507 220.796V220.748C227.363 220.66 227.239 220.536 227.135 220.376C227.039 220.216 226.991 220.024 226.991 219.8C226.991 219.552 227.059 219.336 227.195 219.152C227.331 218.968 227.475 218.824 227.627 218.72V218.672C227.435 218.512 227.259 218.296 227.099 218.024C226.947 217.752 226.871 217.444 226.871 217.1C226.871 216.676 226.971 216.308 227.171 215.996C227.371 215.684 227.639 215.444 227.975 215.276C228.311 215.108 228.675 215.024 229.067 215.024C229.227 215.024 229.379 215.04 229.523 215.072C229.667 215.096 229.791 215.128 229.895 215.168H231.923V215.924H230.723C230.859 216.052 230.971 216.224 231.059 216.44C231.155 216.648 231.203 216.876 231.203 217.124C231.203 217.54 231.107 217.9 230.915 218.204C230.723 218.508 230.467 218.744 230.147 218.912C229.827 219.072 229.467 219.152 229.067 219.152C228.755 219.152 228.463 219.084 228.191 218.948C228.087 219.036 227.999 219.136 227.927 219.248C227.855 219.352 227.819 219.484 227.819 219.644C227.819 219.828 227.891 219.98 228.035 220.1C228.187 220.22 228.459 220.28 228.851 220.28H229.979C230.659 220.28 231.167 220.392 231.503 220.616C231.847 220.832 232.019 221.184 232.019 221.672C232.019 222.032 231.899 222.364 231.659 222.668C231.419 222.972 231.079 223.216 230.639 223.4C230.199 223.592 229.675 223.688 229.067 223.688ZM229.067 218.492C229.403 218.492 229.691 218.368 229.931 218.12C230.179 217.864 230.303 217.524 230.303 217.1C230.303 216.676 230.183 216.344 229.943 216.104C229.703 215.864 229.411 215.744 229.067 215.744C228.723 215.744 228.431 215.864 228.191 216.104C227.951 216.344 227.831 216.676 227.831 217.1C227.831 217.524 227.951 217.864 228.191 218.12C228.439 218.368 228.731 218.492 229.067 218.492ZM229.211 223.004C229.771 223.004 230.219 222.88 230.555 222.632C230.891 222.392 231.059 222.12 231.059 221.816C231.059 221.544 230.955 221.356 230.747 221.252C230.547 221.148 230.259 221.096 229.883 221.096H228.875C228.763 221.096 228.639 221.088 228.503 221.072C228.375 221.056 228.247 221.032 228.119 221C227.911 221.152 227.759 221.312 227.663 221.48C227.567 221.648 227.519 221.816 227.519 221.984C227.519 222.296 227.667 222.544 227.963 222.728C228.267 222.912 228.683 223.004 229.211 223.004ZM233.634 223.112L233.022 222.824C233.486 222.064 233.83 221.244 234.054 220.364C234.286 219.476 234.402 218.576 234.402 217.664C234.402 216.752 234.286 215.856 234.054 214.976C233.83 214.088 233.486 213.264 233.022 212.504L233.634 212.216C234.13 213.016 234.518 213.86 234.798 214.748C235.078 215.636 235.218 216.608 235.218 217.664C235.218 218.72 235.078 219.692 234.798 220.58C234.518 221.46 234.13 222.304 233.634 223.112Z" fill="#596069"/>
<path d="M117.536 245V243.684H119.524V237.832H117.886V236.824C118.325 236.74 118.707 236.642 119.034 236.53C119.361 236.409 119.664 236.264 119.944 236.096H121.148V243.684H122.898V245H117.536ZM127.43 240.66C127.178 240.66 126.912 240.739 126.632 240.898C126.352 241.047 126.086 241.309 125.834 241.682C125.918 242.475 126.109 243.049 126.408 243.404C126.706 243.759 127.07 243.936 127.5 243.936C127.873 243.936 128.186 243.791 128.438 243.502C128.699 243.203 128.83 242.783 128.83 242.242C128.83 241.719 128.704 241.327 128.452 241.066C128.209 240.795 127.868 240.66 127.43 240.66ZM127.528 245.168C126.949 245.168 126.412 245.014 125.918 244.706C125.423 244.398 125.026 243.922 124.728 243.278C124.438 242.634 124.294 241.813 124.294 240.814C124.294 239.657 124.457 238.723 124.784 238.014C125.12 237.295 125.554 236.768 126.086 236.432C126.618 236.096 127.187 235.928 127.794 235.928C128.335 235.928 128.802 236.026 129.194 236.222C129.586 236.418 129.912 236.656 130.174 236.936L129.306 237.916C129.147 237.72 128.937 237.561 128.676 237.44C128.424 237.309 128.162 237.244 127.892 237.244C127.518 237.244 127.178 237.347 126.87 237.552C126.562 237.757 126.31 238.103 126.114 238.588C125.927 239.064 125.82 239.713 125.792 240.534C126.053 240.207 126.361 239.951 126.716 239.764C127.07 239.577 127.406 239.484 127.724 239.484C128.498 239.484 129.124 239.713 129.6 240.17C130.085 240.618 130.328 241.309 130.328 242.242C130.328 242.83 130.197 243.343 129.936 243.782C129.684 244.221 129.348 244.561 128.928 244.804C128.508 245.047 128.041 245.168 127.528 245.168ZM134.453 245.168C133.875 245.168 133.357 245.065 132.899 244.86C132.442 244.645 132.083 244.356 131.821 243.992C131.56 243.628 131.429 243.203 131.429 242.718C131.429 242.167 131.593 241.705 131.919 241.332C132.246 240.959 132.619 240.66 133.039 240.436V240.38C132.694 240.137 132.4 239.848 132.157 239.512C131.924 239.167 131.807 238.761 131.807 238.294C131.807 237.809 131.924 237.393 132.157 237.048C132.391 236.693 132.708 236.418 133.109 236.222C133.52 236.026 133.982 235.928 134.495 235.928C135.298 235.928 135.933 236.152 136.399 236.6C136.875 237.039 137.113 237.617 137.113 238.336C137.113 238.775 136.987 239.171 136.735 239.526C136.483 239.881 136.213 240.165 135.923 240.38V240.436C136.334 240.669 136.693 240.963 137.001 241.318C137.309 241.673 137.463 242.149 137.463 242.746C137.463 243.203 137.337 243.614 137.085 243.978C136.833 244.342 136.483 244.631 136.035 244.846C135.587 245.061 135.06 245.168 134.453 245.168ZM135.041 239.974C135.284 239.731 135.466 239.484 135.587 239.232C135.718 238.98 135.783 238.714 135.783 238.434C135.783 238.042 135.667 237.72 135.433 237.468C135.2 237.207 134.878 237.076 134.467 237.076C134.122 237.076 133.833 237.183 133.599 237.398C133.366 237.613 133.249 237.911 133.249 238.294C133.249 238.593 133.329 238.845 133.487 239.05C133.646 239.246 133.861 239.419 134.131 239.568C134.411 239.708 134.715 239.843 135.041 239.974ZM134.481 244.02C134.911 244.02 135.261 243.903 135.531 243.67C135.811 243.427 135.951 243.101 135.951 242.69C135.951 242.363 135.853 242.097 135.657 241.892C135.471 241.687 135.214 241.509 134.887 241.36C134.57 241.201 134.211 241.043 133.809 240.884C133.529 241.089 133.296 241.332 133.109 241.612C132.932 241.892 132.843 242.205 132.843 242.55C132.843 242.989 133.002 243.343 133.319 243.614C133.637 243.885 134.024 244.02 134.481 244.02Z" fill="#1E2124"/>
<path d="M142.62 247.92L145.824 237.48H146.544L143.34 247.92H142.62ZM150.502 240.66C150.502 241.156 150.618 241.552 150.85 241.848C151.09 242.136 151.446 242.28 151.918 242.28C152.174 242.28 152.442 242.2 152.722 242.04C153.01 241.88 153.278 241.62 153.526 241.26C153.462 240.516 153.286 239.952 152.998 239.568C152.71 239.176 152.322 238.98 151.834 238.98C151.466 238.98 151.15 239.136 150.886 239.448C150.63 239.752 150.502 240.156 150.502 240.66ZM151.558 246.144C151.15 246.144 150.79 246.068 150.478 245.916C150.174 245.756 149.918 245.564 149.71 245.34L150.262 244.716C150.422 244.9 150.61 245.048 150.826 245.16C151.05 245.272 151.282 245.328 151.522 245.328C151.882 245.328 152.214 245.224 152.518 245.016C152.822 244.808 153.066 244.464 153.25 243.984C153.442 243.504 153.542 242.856 153.55 242.04C153.31 242.344 153.03 242.584 152.71 242.76C152.39 242.936 152.07 243.024 151.75 243.024C151.094 243.024 150.566 242.828 150.166 242.436C149.774 242.036 149.578 241.444 149.578 240.66C149.578 240.172 149.682 239.744 149.89 239.376C150.098 239.008 150.37 238.72 150.706 238.512C151.05 238.304 151.426 238.2 151.834 238.2C152.338 238.2 152.79 238.336 153.19 238.608C153.59 238.88 153.902 239.288 154.126 239.832C154.358 240.376 154.474 241.06 154.474 241.884C154.474 242.908 154.334 243.732 154.054 244.356C153.782 244.98 153.426 245.436 152.986 245.724C152.546 246.004 152.07 246.144 151.558 246.144ZM158.051 246.144C157.283 246.144 156.679 245.8 156.239 245.112C155.807 244.416 155.591 243.428 155.591 242.148C155.591 240.86 155.807 239.88 156.239 239.208C156.679 238.536 157.283 238.2 158.051 238.2C158.811 238.2 159.407 238.536 159.839 239.208C160.279 239.88 160.499 240.86 160.499 242.148C160.499 243.428 160.279 244.416 159.839 245.112C159.407 245.8 158.811 246.144 158.051 246.144ZM158.051 245.352C158.499 245.352 158.859 245.1 159.131 244.596C159.403 244.084 159.539 243.268 159.539 242.148C159.539 241.028 159.403 240.224 159.131 239.736C158.859 239.24 158.499 238.992 158.051 238.992C157.603 238.992 157.239 239.24 156.959 239.736C156.687 240.224 156.551 241.028 156.551 242.148C156.551 243.268 156.687 244.084 156.959 244.596C157.239 245.1 157.603 245.352 158.051 245.352ZM164.015 246.144C163.247 246.144 162.643 245.8 162.203 245.112C161.771 244.416 161.555 243.428 161.555 242.148C161.555 240.86 161.771 239.88 162.203 239.208C162.643 238.536 163.247 238.2 164.015 238.2C164.775 238.2 165.371 238.536 165.803 239.208C166.243 239.88 166.463 240.86 166.463 242.148C166.463 243.428 166.243 244.416 165.803 245.112C165.371 245.8 164.775 246.144 164.015 246.144ZM164.015 245.352C164.463 245.352 164.823 245.1 165.095 244.596C165.367 244.084 165.503 243.268 165.503 242.148C165.503 241.028 165.367 240.224 165.095 239.736C164.823 239.24 164.463 238.992 164.015 238.992C163.567 238.992 163.203 239.24 162.923 239.736C162.651 240.224 162.515 241.028 162.515 242.148C162.515 243.268 162.651 244.084 162.923 244.596C163.203 245.1 163.567 245.352 164.015 245.352Z" fill="#596069"/>
<rect x="16.5" y="200.5" width="251" height="57" rx="7.5" stroke="#DEE0E2"/>
<rect x="284.5" y="200.5" width="251" height="57" rx="7.5" fill="#F4F5F6"/>
<path d="M322.58 221V213.128H323.576V220.148H327.02V221H322.58ZM330.687 221.144C330.215 221.144 329.771 221.024 329.355 220.784C328.947 220.544 328.615 220.196 328.359 219.74C328.111 219.284 327.987 218.736 327.987 218.096C327.987 217.44 328.111 216.884 328.359 216.428C328.615 215.972 328.947 215.624 329.355 215.384C329.771 215.144 330.215 215.024 330.687 215.024C331.167 215.024 331.611 215.144 332.019 215.384C332.427 215.624 332.755 215.972 333.003 216.428C333.259 216.884 333.387 217.44 333.387 218.096C333.387 218.736 333.259 219.284 333.003 219.74C332.755 220.196 332.427 220.544 332.019 220.784C331.611 221.024 331.167 221.144 330.687 221.144ZM330.687 220.328C331.191 220.328 331.595 220.124 331.899 219.716C332.211 219.3 332.367 218.76 332.367 218.096C332.367 217.424 332.211 216.88 331.899 216.464C331.595 216.048 331.191 215.84 330.687 215.84C330.191 215.84 329.787 216.048 329.475 216.464C329.163 216.88 329.007 217.424 329.007 218.096C329.007 218.76 329.163 219.3 329.475 219.716C329.787 220.124 330.191 220.328 330.687 220.328ZM336.343 221.144C335.855 221.144 335.447 221 335.119 220.712C334.799 220.416 334.639 220.008 334.639 219.488C334.639 218.848 334.923 218.36 335.491 218.024C336.067 217.68 336.975 217.44 338.215 217.304C338.215 217.056 338.179 216.82 338.107 216.596C338.043 216.372 337.923 216.192 337.747 216.056C337.579 215.912 337.335 215.84 337.015 215.84C336.679 215.84 336.363 215.904 336.067 216.032C335.771 216.16 335.507 216.304 335.275 216.464L334.891 215.78C335.163 215.604 335.495 215.436 335.887 215.276C336.287 215.108 336.719 215.024 337.183 215.024C337.895 215.024 338.411 215.244 338.731 215.684C339.051 216.116 339.211 216.696 339.211 217.424V221H338.395L338.311 220.304H338.275C338.003 220.528 337.703 220.724 337.375 220.892C337.055 221.06 336.711 221.144 336.343 221.144ZM336.631 220.352C336.911 220.352 337.175 220.284 337.423 220.148C337.671 220.012 337.935 219.82 338.215 219.572V217.952C337.247 218.072 336.567 218.252 336.175 218.492C335.791 218.732 335.599 219.04 335.599 219.416C335.599 219.744 335.699 219.984 335.899 220.136C336.099 220.28 336.343 220.352 336.631 220.352ZM343.278 221.144C342.55 221.144 341.966 220.88 341.526 220.352C341.086 219.816 340.866 219.064 340.866 218.096C340.866 217.464 340.982 216.92 341.214 216.464C341.454 216 341.766 215.644 342.15 215.396C342.542 215.148 342.958 215.024 343.398 215.024C343.734 215.024 344.026 215.084 344.274 215.204C344.522 215.324 344.774 215.488 345.03 215.696L344.982 214.7V212.456H345.978V221H345.162L345.078 220.316H345.042C344.818 220.54 344.554 220.736 344.25 220.904C343.946 221.064 343.622 221.144 343.278 221.144ZM343.494 220.316C344.006 220.316 344.502 220.048 344.982 219.512V216.464C344.734 216.24 344.494 216.084 344.262 215.996C344.038 215.9 343.806 215.852 343.566 215.852C343.254 215.852 342.97 215.948 342.714 216.14C342.466 216.324 342.266 216.584 342.114 216.92C341.962 217.248 341.886 217.636 341.886 218.084C341.886 218.78 342.026 219.328 342.306 219.728C342.586 220.12 342.982 220.316 343.494 220.316ZM352.409 223.112C351.913 222.304 351.525 221.46 351.245 220.58C350.965 219.692 350.825 218.72 350.825 217.664C350.825 216.608 350.965 215.636 351.245 214.748C351.525 213.86 351.913 213.016 352.409 212.216L353.021 212.504C352.557 213.264 352.209 214.088 351.977 214.976C351.753 215.856 351.641 216.752 351.641 217.664C351.641 218.576 351.753 219.476 351.977 220.364C352.209 221.244 352.557 222.064 353.021 222.824L352.409 223.112ZM357.769 221.144C357.113 221.144 356.525 220.984 356.005 220.664C355.493 220.336 355.085 219.868 354.781 219.26C354.485 218.652 354.337 217.92 354.337 217.064C354.337 216.216 354.489 215.488 354.793 214.88C355.097 214.272 355.513 213.804 356.041 213.476C356.569 213.148 357.165 212.984 357.829 212.984C358.309 212.984 358.733 213.084 359.101 213.284C359.469 213.476 359.765 213.7 359.989 213.956L359.449 214.604C359.241 214.38 359.005 214.2 358.741 214.064C358.477 213.928 358.177 213.86 357.841 213.86C357.345 213.86 356.909 213.992 356.533 214.256C356.165 214.512 355.877 214.876 355.669 215.348C355.469 215.82 355.369 216.384 355.369 217.04C355.369 217.696 355.469 218.268 355.669 218.756C355.869 219.236 356.149 219.608 356.509 219.872C356.877 220.136 357.309 220.268 357.805 220.268C358.181 220.268 358.517 220.188 358.813 220.028C359.109 219.868 359.381 219.652 359.629 219.38L360.181 220.004C359.869 220.364 359.517 220.644 359.125 220.844C358.733 221.044 358.281 221.144 357.769 221.144ZM363.137 221.144C362.649 221.144 362.241 221 361.913 220.712C361.593 220.416 361.433 220.008 361.433 219.488C361.433 218.848 361.717 218.36 362.285 218.024C362.861 217.68 363.769 217.44 365.009 217.304C365.009 217.056 364.973 216.82 364.901 216.596C364.837 216.372 364.717 216.192 364.541 216.056C364.373 215.912 364.129 215.84 363.809 215.84C363.473 215.84 363.157 215.904 362.861 216.032C362.565 216.16 362.301 216.304 362.069 216.464L361.685 215.78C361.957 215.604 362.289 215.436 362.681 215.276C363.081 215.108 363.513 215.024 363.977 215.024C364.689 215.024 365.205 215.244 365.525 215.684C365.845 216.116 366.005 216.696 366.005 217.424V221H365.189L365.105 220.304H365.069C364.797 220.528 364.497 220.724 364.169 220.892C363.849 221.06 363.505 221.144 363.137 221.144ZM363.425 220.352C363.705 220.352 363.969 220.284 364.217 220.148C364.465 220.012 364.729 219.82 365.009 219.572V217.952C364.041 218.072 363.361 218.252 362.969 218.492C362.585 218.732 362.393 219.04 362.393 219.416C362.393 219.744 362.493 219.984 362.693 220.136C362.893 220.28 363.137 220.352 363.425 220.352ZM369.124 221.144C368.756 221.144 368.488 221.032 368.32 220.808C368.16 220.576 368.08 220.248 368.08 219.824V212.456H369.064V219.896C369.064 220.048 369.092 220.16 369.148 220.232C369.204 220.296 369.268 220.328 369.34 220.328C369.372 220.328 369.4 220.328 369.424 220.328C369.456 220.32 369.5 220.312 369.556 220.304L369.688 221.048C369.624 221.08 369.548 221.104 369.46 221.12C369.372 221.136 369.26 221.144 369.124 221.144ZM373.682 221.144C373.17 221.144 372.706 221.024 372.29 220.784C371.874 220.544 371.546 220.196 371.306 219.74C371.066 219.284 370.946 218.736 370.946 218.096C370.946 217.44 371.074 216.884 371.33 216.428C371.594 215.972 371.938 215.624 372.362 215.384C372.794 215.144 373.258 215.024 373.754 215.024C374.138 215.024 374.466 215.092 374.738 215.228C375.018 215.364 375.258 215.524 375.458 215.708L374.954 216.356C374.786 216.204 374.606 216.08 374.414 215.984C374.23 215.888 374.022 215.84 373.79 215.84C373.438 215.84 373.122 215.936 372.842 216.128C372.57 216.312 372.354 216.576 372.194 216.92C372.042 217.256 371.966 217.648 371.966 218.096C371.966 218.76 372.13 219.3 372.458 219.716C372.794 220.124 373.23 220.328 373.766 220.328C374.038 220.328 374.29 220.272 374.522 220.16C374.754 220.04 374.958 219.9 375.134 219.74L375.566 220.4C375.302 220.632 375.01 220.816 374.69 220.952C374.37 221.08 374.034 221.144 373.682 221.144ZM378.795 221.144C378.179 221.144 377.727 220.952 377.439 220.568C377.151 220.176 377.007 219.608 377.007 218.864V215.168H378.003V218.732C378.003 219.276 378.087 219.672 378.255 219.92C378.431 220.168 378.711 220.292 379.095 220.292C379.399 220.292 379.667 220.216 379.899 220.064C380.139 219.904 380.395 219.652 380.667 219.308V215.168H381.651V221H380.835L380.751 220.088H380.715C380.443 220.408 380.155 220.664 379.851 220.856C379.547 221.048 379.195 221.144 378.795 221.144ZM384.902 221.144C384.534 221.144 384.266 221.032 384.098 220.808C383.938 220.576 383.858 220.248 383.858 219.824V212.456H384.842V219.896C384.842 220.048 384.87 220.16 384.926 220.232C384.982 220.296 385.046 220.328 385.118 220.328C385.15 220.328 385.178 220.328 385.202 220.328C385.234 220.32 385.278 220.312 385.334 220.304L385.466 221.048C385.402 221.08 385.326 221.104 385.238 221.12C385.15 221.136 385.038 221.144 384.902 221.144ZM388.501 221.144C388.013 221.144 387.605 221 387.277 220.712C386.957 220.416 386.797 220.008 386.797 219.488C386.797 218.848 387.081 218.36 387.649 218.024C388.225 217.68 389.133 217.44 390.373 217.304C390.373 217.056 390.337 216.82 390.265 216.596C390.201 216.372 390.081 216.192 389.905 216.056C389.737 215.912 389.493 215.84 389.173 215.84C388.837 215.84 388.521 215.904 388.225 216.032C387.929 216.16 387.665 216.304 387.433 216.464L387.049 215.78C387.321 215.604 387.653 215.436 388.045 215.276C388.445 215.108 388.877 215.024 389.341 215.024C390.053 215.024 390.569 215.244 390.889 215.684C391.209 216.116 391.369 216.696 391.369 217.424V221H390.553L390.469 220.304H390.433C390.161 220.528 389.861 220.724 389.533 220.892C389.213 221.06 388.869 221.144 388.501 221.144ZM388.789 220.352C389.069 220.352 389.333 220.284 389.581 220.148C389.829 220.012 390.093 219.82 390.373 219.572V217.952C389.405 218.072 388.725 218.252 388.333 218.492C387.949 218.732 387.757 219.04 387.757 219.416C387.757 219.744 387.857 219.984 388.057 220.136C388.257 220.28 388.501 220.352 388.789 220.352ZM395.116 221.144C394.492 221.144 394.056 220.964 393.808 220.604C393.568 220.244 393.448 219.776 393.448 219.2V215.972H392.584V215.228L393.496 215.168L393.616 213.536H394.444V215.168H396.016V215.972H394.444V219.212C394.444 219.572 394.508 219.852 394.636 220.052C394.772 220.244 395.008 220.34 395.344 220.34C395.448 220.34 395.56 220.324 395.68 220.292C395.8 220.252 395.908 220.216 396.004 220.184L396.196 220.928C396.036 220.984 395.86 221.032 395.668 221.072C395.484 221.12 395.3 221.144 395.116 221.144ZM399.774 221.144C399.254 221.144 398.782 221.024 398.358 220.784C397.934 220.536 397.598 220.184 397.35 219.728C397.102 219.272 396.978 218.728 396.978 218.096C396.978 217.456 397.102 216.908 397.35 216.452C397.606 215.996 397.934 215.644 398.334 215.396C398.734 215.148 399.154 215.024 399.594 215.024C400.338 215.024 400.91 215.272 401.31 215.768C401.718 216.264 401.922 216.928 401.922 217.76C401.922 217.864 401.918 217.968 401.91 218.072C401.91 218.168 401.902 218.252 401.886 218.324H397.95C397.99 218.94 398.182 219.432 398.526 219.8C398.878 220.168 399.334 220.352 399.894 220.352C400.174 220.352 400.43 220.312 400.662 220.232C400.902 220.144 401.13 220.032 401.346 219.896L401.694 220.544C401.446 220.704 401.162 220.844 400.842 220.964C400.53 221.084 400.174 221.144 399.774 221.144ZM397.938 217.616H401.058C401.058 217.024 400.93 216.576 400.674 216.272C400.426 215.96 400.074 215.804 399.618 215.804C399.21 215.804 398.842 215.964 398.514 216.284C398.194 216.596 398.002 217.04 397.938 217.616ZM405.596 221.144C404.868 221.144 404.284 220.88 403.844 220.352C403.404 219.816 403.184 219.064 403.184 218.096C403.184 217.464 403.3 216.92 403.532 216.464C403.772 216 404.084 215.644 404.468 215.396C404.86 215.148 405.276 215.024 405.716 215.024C406.052 215.024 406.344 215.084 406.592 215.204C406.84 215.324 407.092 215.488 407.348 215.696L407.3 214.7V212.456H408.296V221H407.48L407.396 220.316H407.36C407.136 220.54 406.872 220.736 406.568 220.904C406.264 221.064 405.94 221.144 405.596 221.144ZM405.812 220.316C406.324 220.316 406.82 220.048 407.3 219.512V216.464C407.052 216.24 406.812 216.084 406.58 215.996C406.356 215.9 406.124 215.852 405.884 215.852C405.572 215.852 405.288 215.948 405.032 216.14C404.784 216.324 404.584 216.584 404.432 216.92C404.28 217.248 404.204 217.636 404.204 218.084C404.204 218.78 404.344 219.328 404.624 219.728C404.904 220.12 405.3 220.316 405.812 220.316ZM413.31 221V215.972H412.518V215.228L413.31 215.168V214.244C413.31 213.652 413.446 213.184 413.718 212.84C413.998 212.488 414.43 212.312 415.014 212.312C415.198 212.312 415.374 212.332 415.542 212.372C415.71 212.404 415.858 212.448 415.986 212.504L415.77 213.26C415.554 213.164 415.334 213.116 415.11 213.116C414.566 213.116 414.294 213.492 414.294 214.244V215.168H415.53V215.972H414.294V221H413.31ZM416.886 221V215.168H417.702L417.786 216.224H417.822C418.022 215.856 418.266 215.564 418.554 215.348C418.842 215.132 419.15 215.024 419.478 215.024C419.71 215.024 419.918 215.064 420.102 215.144L419.91 216.008C419.814 215.976 419.726 215.952 419.646 215.936C419.566 215.92 419.466 215.912 419.346 215.912C419.098 215.912 418.838 216.012 418.566 216.212C418.302 216.412 418.07 216.76 417.87 217.256V221H416.886ZM423.437 221.144C422.965 221.144 422.521 221.024 422.105 220.784C421.697 220.544 421.365 220.196 421.109 219.74C420.861 219.284 420.737 218.736 420.737 218.096C420.737 217.44 420.861 216.884 421.109 216.428C421.365 215.972 421.697 215.624 422.105 215.384C422.521 215.144 422.965 215.024 423.437 215.024C423.917 215.024 424.361 215.144 424.769 215.384C425.177 215.624 425.505 215.972 425.753 216.428C426.009 216.884 426.137 217.44 426.137 218.096C426.137 218.736 426.009 219.284 425.753 219.74C425.505 220.196 425.177 220.544 424.769 220.784C424.361 221.024 423.917 221.144 423.437 221.144ZM423.437 220.328C423.941 220.328 424.345 220.124 424.649 219.716C424.961 219.3 425.117 218.76 425.117 218.096C425.117 217.424 424.961 216.88 424.649 216.464C424.345 216.048 423.941 215.84 423.437 215.84C422.941 215.84 422.537 216.048 422.225 216.464C421.913 216.88 421.757 217.424 421.757 218.096C421.757 218.76 421.913 219.3 422.225 219.716C422.537 220.124 422.941 220.328 423.437 220.328ZM427.913 221V215.168H428.729L428.813 216.008H428.849C429.105 215.728 429.385 215.496 429.689 215.312C429.993 215.12 430.317 215.024 430.661 215.024C431.109 215.024 431.457 215.124 431.705 215.324C431.961 215.516 432.149 215.788 432.269 216.14C432.573 215.812 432.881 215.544 433.193 215.336C433.505 215.128 433.837 215.024 434.189 215.024C434.789 215.024 435.233 215.22 435.521 215.612C435.817 215.996 435.965 216.56 435.965 217.304V221H434.981V217.436C434.981 216.892 434.893 216.496 434.717 216.248C434.541 216 434.269 215.876 433.901 215.876C433.469 215.876 432.981 216.176 432.437 216.776V221H431.453V217.436C431.453 216.892 431.365 216.496 431.189 216.248C431.013 216 430.737 215.876 430.361 215.876C429.929 215.876 429.441 216.176 428.897 216.776V221H427.913ZM442.58 221.144C441.956 221.144 441.52 220.964 441.272 220.604C441.032 220.244 440.912 219.776 440.912 219.2V215.972H440.048V215.228L440.96 215.168L441.08 213.536H441.908V215.168H443.48V215.972H441.908V219.212C441.908 219.572 441.972 219.852 442.1 220.052C442.236 220.244 442.472 220.34 442.808 220.34C442.912 220.34 443.024 220.324 443.144 220.292C443.264 220.252 443.372 220.216 443.468 220.184L443.66 220.928C443.5 220.984 443.324 221.032 443.132 221.072C442.948 221.12 442.764 221.144 442.58 221.144ZM447.143 221.144C446.671 221.144 446.227 221.024 445.811 220.784C445.403 220.544 445.071 220.196 444.815 219.74C444.567 219.284 444.443 218.736 444.443 218.096C444.443 217.44 444.567 216.884 444.815 216.428C445.071 215.972 445.403 215.624 445.811 215.384C446.227 215.144 446.671 215.024 447.143 215.024C447.623 215.024 448.067 215.144 448.475 215.384C448.883 215.624 449.211 215.972 449.459 216.428C449.715 216.884 449.843 217.44 449.843 218.096C449.843 218.736 449.715 219.284 449.459 219.74C449.211 220.196 448.883 220.544 448.475 220.784C448.067 221.024 447.623 221.144 447.143 221.144ZM447.143 220.328C447.647 220.328 448.051 220.124 448.355 219.716C448.667 219.3 448.823 218.76 448.823 218.096C448.823 217.424 448.667 216.88 448.355 216.464C448.051 216.048 447.647 215.84 447.143 215.84C446.647 215.84 446.243 216.048 445.931 216.464C445.619 216.88 445.463 217.424 445.463 218.096C445.463 218.76 445.619 219.3 445.931 219.716C446.243 220.124 446.647 220.328 447.143 220.328ZM453.256 221.144C452.632 221.144 452.196 220.964 451.948 220.604C451.708 220.244 451.588 219.776 451.588 219.2V215.972H450.724V215.228L451.636 215.168L451.756 213.536H452.584V215.168H454.156V215.972H452.584V219.212C452.584 219.572 452.648 219.852 452.776 220.052C452.912 220.244 453.148 220.34 453.484 220.34C453.588 220.34 453.7 220.324 453.82 220.292C453.94 220.252 454.048 220.216 454.144 220.184L454.336 220.928C454.176 220.984 454 221.032 453.808 221.072C453.624 221.12 453.44 221.144 453.256 221.144ZM456.801 221.144C456.313 221.144 455.905 221 455.577 220.712C455.257 220.416 455.097 220.008 455.097 219.488C455.097 218.848 455.381 218.36 455.949 218.024C456.525 217.68 457.433 217.44 458.673 217.304C458.673 217.056 458.637 216.82 458.565 216.596C458.501 216.372 458.381 216.192 458.205 216.056C458.037 215.912 457.793 215.84 457.473 215.84C457.137 215.84 456.821 215.904 456.525 216.032C456.229 216.16 455.965 216.304 455.733 216.464L455.349 215.78C455.621 215.604 455.953 215.436 456.345 215.276C456.745 215.108 457.177 215.024 457.641 215.024C458.353 215.024 458.869 215.244 459.189 215.684C459.509 216.116 459.669 216.696 459.669 217.424V221H458.853L458.769 220.304H458.733C458.461 220.528 458.161 220.724 457.833 220.892C457.513 221.06 457.169 221.144 456.801 221.144ZM457.089 220.352C457.369 220.352 457.633 220.284 457.881 220.148C458.129 220.012 458.393 219.82 458.673 219.572V217.952C457.705 218.072 457.025 218.252 456.633 218.492C456.249 218.732 456.057 219.04 456.057 219.416C456.057 219.744 456.157 219.984 456.357 220.136C456.557 220.28 456.801 220.352 457.089 220.352ZM462.788 221.144C462.42 221.144 462.152 221.032 461.984 220.808C461.824 220.576 461.744 220.248 461.744 219.824V212.456H462.728V219.896C462.728 220.048 462.756 220.16 462.812 220.232C462.868 220.296 462.932 220.328 463.004 220.328C463.036 220.328 463.064 220.328 463.088 220.328C463.12 220.32 463.164 220.312 463.22 220.304L463.352 221.048C463.288 221.08 463.212 221.104 463.124 221.12C463.036 221.136 462.924 221.144 462.788 221.144ZM468.944 221L466.844 215.168H467.864L468.968 218.48C469.056 218.768 469.144 219.056 469.232 219.344C469.328 219.632 469.42 219.916 469.508 220.196H469.556C469.644 219.916 469.732 219.632 469.82 219.344C469.916 219.056 470.004 218.768 470.084 218.48L471.188 215.168H472.16L470.096 221H468.944ZM474.636 221.144C474.148 221.144 473.74 221 473.412 220.712C473.092 220.416 472.932 220.008 472.932 219.488C472.932 218.848 473.216 218.36 473.784 218.024C474.36 217.68 475.268 217.44 476.508 217.304C476.508 217.056 476.472 216.82 476.4 216.596C476.336 216.372 476.216 216.192 476.04 216.056C475.872 215.912 475.628 215.84 475.308 215.84C474.972 215.84 474.656 215.904 474.36 216.032C474.064 216.16 473.8 216.304 473.568 216.464L473.184 215.78C473.456 215.604 473.788 215.436 474.18 215.276C474.58 215.108 475.012 215.024 475.476 215.024C476.188 215.024 476.704 215.244 477.024 215.684C477.344 216.116 477.504 216.696 477.504 217.424V221H476.688L476.604 220.304H476.568C476.296 220.528 475.996 220.724 475.668 220.892C475.348 221.06 475.004 221.144 474.636 221.144ZM474.924 220.352C475.204 220.352 475.468 220.284 475.716 220.148C475.964 220.012 476.228 219.82 476.508 219.572V217.952C475.54 218.072 474.86 218.252 474.468 218.492C474.084 218.732 473.892 219.04 473.892 219.416C473.892 219.744 473.992 219.984 474.192 220.136C474.392 220.28 474.636 220.352 474.924 220.352ZM480.623 221.144C480.255 221.144 479.987 221.032 479.819 220.808C479.659 220.576 479.579 220.248 479.579 219.824V212.456H480.563V219.896C480.563 220.048 480.591 220.16 480.647 220.232C480.703 220.296 480.767 220.328 480.839 220.328C480.871 220.328 480.899 220.328 480.923 220.328C480.955 220.32 480.999 220.312 481.055 220.304L481.187 221.048C481.123 221.08 481.047 221.104 480.959 221.12C480.871 221.136 480.759 221.144 480.623 221.144ZM484.581 221.144C483.965 221.144 483.513 220.952 483.225 220.568C482.937 220.176 482.793 219.608 482.793 218.864V215.168H483.789V218.732C483.789 219.276 483.873 219.672 484.041 219.92C484.217 220.168 484.497 220.292 484.881 220.292C485.185 220.292 485.453 220.216 485.685 220.064C485.925 219.904 486.181 219.652 486.453 219.308V215.168H487.437V221H486.621L486.537 220.088H486.501C486.229 220.408 485.941 220.664 485.637 220.856C485.333 221.048 484.981 221.144 484.581 221.144ZM492.008 221.144C491.488 221.144 491.016 221.024 490.592 220.784C490.168 220.536 489.832 220.184 489.584 219.728C489.336 219.272 489.212 218.728 489.212 218.096C489.212 217.456 489.336 216.908 489.584 216.452C489.84 215.996 490.168 215.644 490.568 215.396C490.968 215.148 491.388 215.024 491.828 215.024C492.572 215.024 493.144 215.272 493.544 215.768C493.952 216.264 494.156 216.928 494.156 217.76C494.156 217.864 494.152 217.968 494.144 218.072C494.144 218.168 494.136 218.252 494.12 218.324H490.184C490.224 218.94 490.416 219.432 490.76 219.8C491.112 220.168 491.568 220.352 492.128 220.352C492.408 220.352 492.664 220.312 492.896 220.232C493.136 220.144 493.364 220.032 493.58 219.896L493.928 220.544C493.68 220.704 493.396 220.844 493.076 220.964C492.764 221.084 492.408 221.144 492.008 221.144ZM490.172 217.616H493.292C493.292 217.024 493.164 216.576 492.908 216.272C492.66 215.96 492.308 215.804 491.852 215.804C491.444 215.804 491.076 215.964 490.748 216.284C490.428 216.596 490.236 217.04 490.172 217.616ZM495.922 223.112L495.31 222.824C495.774 222.064 496.118 221.244 496.342 220.364C496.574 219.476 496.69 218.576 496.69 217.664C496.69 216.752 496.574 215.856 496.342 214.976C496.118 214.088 495.774 213.264 495.31 212.504L495.922 212.216C496.418 213.016 496.806 213.86 497.086 214.748C497.366 215.636 497.506 216.608 497.506 217.664C497.506 218.72 497.366 219.692 497.086 220.58C496.806 221.46 496.418 222.304 495.922 223.112Z" fill="#596069"/>
<path d="M392.036 245V243.684H394.024V237.832H392.386V236.824C392.825 236.74 393.207 236.642 393.534 236.53C393.861 236.409 394.164 236.264 394.444 236.096H395.648V243.684H397.398V245H392.036ZM401.776 245.168C401.197 245.168 400.679 245.065 400.222 244.86C399.764 244.645 399.405 244.356 399.144 243.992C398.882 243.628 398.752 243.203 398.752 242.718C398.752 242.167 398.915 241.705 399.242 241.332C399.568 240.959 399.942 240.66 400.362 240.436V240.38C400.016 240.137 399.722 239.848 399.48 239.512C399.246 239.167 399.13 238.761 399.13 238.294C399.13 237.809 399.246 237.393 399.48 237.048C399.713 236.693 400.03 236.418 400.432 236.222C400.842 236.026 401.304 235.928 401.818 235.928C402.62 235.928 403.255 236.152 403.722 236.6C404.198 237.039 404.436 237.617 404.436 238.336C404.436 238.775 404.31 239.171 404.058 239.526C403.806 239.881 403.535 240.165 403.246 240.38V240.436C403.656 240.669 404.016 240.963 404.324 241.318C404.632 241.673 404.786 242.149 404.786 242.746C404.786 243.203 404.66 243.614 404.408 243.978C404.156 244.342 403.806 244.631 403.358 244.846C402.91 245.061 402.382 245.168 401.776 245.168ZM402.364 239.974C402.606 239.731 402.788 239.484 402.91 239.232C403.04 238.98 403.106 238.714 403.106 238.434C403.106 238.042 402.989 237.72 402.756 237.468C402.522 237.207 402.2 237.076 401.79 237.076C401.444 237.076 401.155 237.183 400.922 237.398C400.688 237.613 400.572 237.911 400.572 238.294C400.572 238.593 400.651 238.845 400.81 239.05C400.968 239.246 401.183 239.419 401.454 239.568C401.734 239.708 402.037 239.843 402.364 239.974ZM401.804 244.02C402.233 244.02 402.583 243.903 402.854 243.67C403.134 243.427 403.274 243.101 403.274 242.69C403.274 242.363 403.176 242.097 402.98 241.892C402.793 241.687 402.536 241.509 402.21 241.36C401.892 241.201 401.533 241.043 401.132 240.884C400.852 241.089 400.618 241.332 400.432 241.612C400.254 241.892 400.166 242.205 400.166 242.55C400.166 242.989 400.324 243.343 400.642 243.614C400.959 243.885 401.346 244.02 401.804 244.02ZM407.287 245.168C406.998 245.168 406.751 245.065 406.545 244.86C406.34 244.655 406.237 244.393 406.237 244.076C406.237 243.759 406.34 243.497 406.545 243.292C406.751 243.087 406.998 242.984 407.287 242.984C407.586 242.984 407.833 243.087 408.029 243.292C408.225 243.497 408.323 243.759 408.323 244.076C408.323 244.393 408.225 244.655 408.029 244.86C407.833 245.065 407.586 245.168 407.287 245.168ZM411.563 245C411.619 243.945 411.731 243.003 411.899 242.172C412.067 241.332 412.324 240.534 412.669 239.778C413.014 239.022 413.472 238.247 414.041 237.454H409.827V236.096H415.805V237.076C415.282 237.72 414.858 238.336 414.531 238.924C414.214 239.512 413.962 240.109 413.775 240.716C413.598 241.313 413.467 241.962 413.383 242.662C413.299 243.353 413.238 244.132 413.201 245H411.563ZM418.993 241.472C418.349 241.472 417.821 241.22 417.411 240.716C417.009 240.203 416.809 239.484 416.809 238.56C416.809 237.645 417.009 236.936 417.411 236.432C417.821 235.928 418.349 235.676 418.993 235.676C419.637 235.676 420.159 235.928 420.561 236.432C420.971 236.936 421.177 237.645 421.177 238.56C421.177 239.484 420.971 240.203 420.561 240.716C420.159 241.22 419.637 241.472 418.993 241.472ZM418.993 240.534C419.291 240.534 419.534 240.375 419.721 240.058C419.917 239.741 420.015 239.241 420.015 238.56C420.015 237.869 419.917 237.375 419.721 237.076C419.534 236.768 419.291 236.614 418.993 236.614C418.703 236.614 418.461 236.768 418.265 237.076C418.069 237.375 417.971 237.869 417.971 238.56C417.971 239.241 418.069 239.741 418.265 240.058C418.461 240.375 418.703 240.534 418.993 240.534ZM419.287 245.168L424.285 235.676H425.265L420.281 245.168H419.287ZM425.559 245.168C424.915 245.168 424.387 244.916 423.977 244.412C423.575 243.899 423.375 243.18 423.375 242.256C423.375 241.341 423.575 240.632 423.977 240.128C424.387 239.624 424.915 239.372 425.559 239.372C426.203 239.372 426.725 239.624 427.127 240.128C427.537 240.632 427.743 241.341 427.743 242.256C427.743 243.18 427.537 243.899 427.127 244.412C426.725 244.916 426.203 245.168 425.559 245.168ZM425.559 244.23C425.857 244.23 426.1 244.071 426.287 243.754C426.483 243.437 426.581 242.937 426.581 242.256C426.581 241.565 426.483 241.071 426.287 240.772C426.1 240.464 425.857 240.31 425.559 240.31C425.269 240.31 425.027 240.464 424.831 240.772C424.635 241.071 424.537 241.565 424.537 242.256C424.537 242.937 424.635 243.437 424.831 243.754C425.027 244.071 425.269 244.23 425.559 244.23Z" fill="#1E2124"/>
<rect x="284.5" y="200.5" width="251" height="57" rx="7.5" stroke="#DEE0E2"/>
<rect x="0.5" y="0.5" width="551" height="273" rx="7.5" stroke="#DEE0E2"/>
</svg>
