<svg width="40" height="40" viewBox="0 0 40 40" fill="none" xmlns="http://www.w3.org/2000/svg">
<path d="M30.9314 32.5815C29.2756 28.1531 25.006 25.0002 20 25.0002C14.9939 25.0002 10.7243 28.1531 9.06859 32.5815M30.9314 32.5815C34.4452 29.5259 36.6666 25.0224 36.6666 20.0002C36.6666 10.7954 29.2047 3.3335 20 3.3335C10.7952 3.3335 3.33331 10.7954 3.33331 20.0002C3.33331 25.0224 5.55472 29.5259 9.06859 32.5815M30.9314 32.5815C28.0051 35.1262 24.1824 36.6668 20 36.6668C15.8175 36.6668 11.9949 35.1262 9.06859 32.5815" stroke="#28303F" stroke-width="1.5" stroke-linejoin="round"/>
<circle cx="5" cy="5" r="5" transform="matrix(1 0 0 -1 15 20)" stroke="#28303F" stroke-width="1.5" stroke-linejoin="round"/>
</svg>
